<svg xmlns="http://www.w3.org/2000/svg" xmlns:xlink="http://www.w3.org/1999/xlink" width="1587" zoomAndPan="magnify" viewBox="0 0 1190.25 1683.749945" height="2245" preserveAspectRatio="xMidYMid meet" version="1.0"><defs><g/></defs><path fill="#6ce5e8" d="M 234.566406 357.601562 L 271.148438 357.601562 C 271.332031 357.601562 271.492188 357.667969 271.621094 357.800781 C 271.753906 357.929688 271.820312 358.089844 271.820312 358.273438 L 271.820312 394.855469 C 271.820312 395.039062 271.753906 395.199219 271.621094 395.328125 C 271.492188 395.460938 271.332031 395.527344 271.148438 395.527344 L 234.566406 395.527344 C 234.382812 395.527344 234.222656 395.460938 234.09375 395.328125 C 233.960938 395.199219 233.894531 395.039062 233.894531 394.855469 L 233.894531 358.273438 C 233.894531 358.089844 233.960938 357.929688 234.09375 357.800781 C 234.222656 357.667969 234.382812 357.601562 234.566406 357.601562 Z M 234.566406 357.601562 " fill-opacity="1" fill-rule="nonzero"/><g fill="#ffffff" fill-opacity="1"><g transform="translate(276.517516, 385.297487)"><g><path d="M 6 0 L 3.40625 0 L 3.40625 -22.5625 L 6.671875 -22.5625 L 17.671875 -5.328125 L 18.0625 -5.390625 L 18.0625 -22.5625 L 20.640625 -22.5625 L 20.640625 0 L 17.859375 0 L 6.390625 -18.4375 L 6 -18.375 Z M 6 0 "/></g></g><g transform="translate(300.574922, 385.297487)"><g><path d="M 9.765625 0.328125 C 8.160156 0.328125 6.765625 -0.0078125 5.578125 -0.6875 C 4.390625 -1.375 3.472656 -2.378906 2.828125 -3.703125 C 2.191406 -5.023438 1.875 -6.625 1.875 -8.5 C 1.875 -10.382812 2.191406 -11.988281 2.828125 -13.3125 C 3.472656 -14.644531 4.390625 -15.648438 5.578125 -16.328125 C 6.765625 -17.003906 8.160156 -17.34375 9.765625 -17.34375 C 11.367188 -17.34375 12.765625 -17.003906 13.953125 -16.328125 C 15.148438 -15.648438 16.066406 -14.644531 16.703125 -13.3125 C 17.347656 -11.988281 17.671875 -10.382812 17.671875 -8.5 C 17.671875 -6.625 17.347656 -5.023438 16.703125 -3.703125 C 16.066406 -2.378906 15.148438 -1.375 13.953125 -0.6875 C 12.765625 -0.0078125 11.367188 0.328125 9.765625 0.328125 Z M 9.765625 -1.921875 C 11.460938 -1.921875 12.757812 -2.457031 13.65625 -3.53125 C 14.5625 -4.601562 15.015625 -6.257812 15.015625 -8.5 C 15.015625 -10.757812 14.5625 -12.421875 13.65625 -13.484375 C 12.757812 -14.554688 11.460938 -15.09375 9.765625 -15.09375 C 8.066406 -15.09375 6.765625 -14.554688 5.859375 -13.484375 C 4.953125 -12.410156 4.5 -10.75 4.5 -8.5 C 4.5 -6.257812 4.953125 -4.601562 5.859375 -3.53125 C 6.765625 -2.457031 8.066406 -1.921875 9.765625 -1.921875 Z M 9.765625 -1.921875 "/></g></g><g transform="translate(320.110955, 385.297487)"><g><path d="M 11.515625 -2.703125 L 12.3125 -0.890625 C 11.914062 -0.492188 11.390625 -0.191406 10.734375 0.015625 C 10.078125 0.222656 9.367188 0.328125 8.609375 0.328125 C 5.359375 0.328125 3.734375 -1.316406 3.734375 -4.609375 L 3.734375 -14.96875 L 0.765625 -14.96875 L 0.765625 -17.046875 L 3.734375 -17.046875 L 3.734375 -20.640625 L 6.25 -21.046875 L 6.25 -17.046875 L 11.734375 -17.046875 L 11.734375 -14.96875 L 6.25 -14.96875 L 6.25 -4.859375 C 6.25 -2.898438 7.097656 -1.921875 8.796875 -1.921875 C 9.722656 -1.921875 10.519531 -2.179688 11.1875 -2.703125 Z M 11.515625 -2.703125 "/></g></g><g transform="translate(333.073252, 385.297487)"><g/></g><g transform="translate(340.819768, 385.297487)"><g><path d="M 9.859375 0.328125 C 8.441406 0.328125 7.171875 0.132812 6.046875 -0.25 C 4.921875 -0.632812 3.976562 -1.140625 3.21875 -1.765625 C 2.46875 -2.398438 1.910156 -3.09375 1.546875 -3.84375 L 3 -5.609375 L 3.375 -5.609375 C 4.78125 -3.242188 6.941406 -2.0625 9.859375 -2.0625 C 11.554688 -2.0625 12.816406 -2.414062 13.640625 -3.125 C 14.472656 -3.84375 14.890625 -4.832031 14.890625 -6.09375 C 14.890625 -6.832031 14.753906 -7.457031 14.484375 -7.96875 C 14.210938 -8.488281 13.757812 -8.929688 13.125 -9.296875 C 12.5 -9.660156 11.648438 -9.976562 10.578125 -10.25 L 7.9375 -10.890625 C 5.96875 -11.367188 4.515625 -12.125 3.578125 -13.15625 C 2.648438 -14.1875 2.1875 -15.492188 2.1875 -17.078125 C 2.1875 -18.203125 2.472656 -19.203125 3.046875 -20.078125 C 3.628906 -20.960938 4.472656 -21.648438 5.578125 -22.140625 C 6.691406 -22.640625 8.019531 -22.890625 9.5625 -22.890625 C 11.257812 -22.890625 12.691406 -22.648438 13.859375 -22.171875 C 15.035156 -21.691406 15.972656 -20.972656 16.671875 -20.015625 L 15.375 -18.28125 L 14.984375 -18.28125 C 14.335938 -19.070312 13.570312 -19.648438 12.6875 -20.015625 C 11.800781 -20.390625 10.757812 -20.578125 9.5625 -20.578125 C 8 -20.578125 6.816406 -20.269531 6.015625 -19.65625 C 5.222656 -19.050781 4.828125 -18.210938 4.828125 -17.140625 C 4.828125 -16.128906 5.117188 -15.320312 5.703125 -14.71875 C 6.296875 -14.113281 7.285156 -13.644531 8.671875 -13.3125 L 11.375 -12.671875 C 13.5625 -12.160156 15.144531 -11.367188 16.125 -10.296875 C 17.113281 -9.234375 17.609375 -7.875 17.609375 -6.21875 C 17.609375 -4.945312 17.320312 -3.816406 16.75 -2.828125 C 16.175781 -1.847656 15.304688 -1.078125 14.140625 -0.515625 C 12.984375 0.046875 11.554688 0.328125 9.859375 0.328125 Z M 9.859375 0.328125 "/></g></g><g transform="translate(360.155194, 385.297487)"><g><path d="M 11.515625 -2.703125 L 12.3125 -0.890625 C 11.914062 -0.492188 11.390625 -0.191406 10.734375 0.015625 C 10.078125 0.222656 9.367188 0.328125 8.609375 0.328125 C 5.359375 0.328125 3.734375 -1.316406 3.734375 -4.609375 L 3.734375 -14.96875 L 0.765625 -14.96875 L 0.765625 -17.046875 L 3.734375 -17.046875 L 3.734375 -20.640625 L 6.25 -21.046875 L 6.25 -17.046875 L 11.734375 -17.046875 L 11.734375 -14.96875 L 6.25 -14.96875 L 6.25 -4.859375 C 6.25 -2.898438 7.097656 -1.921875 8.796875 -1.921875 C 9.722656 -1.921875 10.519531 -2.179688 11.1875 -2.703125 Z M 11.515625 -2.703125 "/></g></g><g transform="translate(373.117491, 385.297487)"><g><path d="M 7.015625 0.328125 C 5.335938 0.328125 4.03125 -0.109375 3.09375 -0.984375 C 2.15625 -1.859375 1.6875 -3.109375 1.6875 -4.734375 C 1.6875 -5.742188 1.894531 -6.59375 2.3125 -7.28125 C 2.726562 -7.976562 3.375 -8.546875 4.25 -8.984375 C 5.125 -9.421875 6.265625 -9.757812 7.671875 -10 C 8.898438 -10.207031 9.835938 -10.4375 10.484375 -10.6875 C 11.128906 -10.945312 11.5625 -11.234375 11.78125 -11.546875 C 12 -11.867188 12.109375 -12.273438 12.109375 -12.765625 C 12.109375 -13.535156 11.84375 -14.125 11.3125 -14.53125 C 10.789062 -14.945312 9.941406 -15.15625 8.765625 -15.15625 C 7.660156 -15.15625 6.710938 -14.941406 5.921875 -14.515625 C 5.140625 -14.085938 4.421875 -13.453125 3.765625 -12.609375 L 3.453125 -12.609375 L 2.21875 -14.359375 C 2.9375 -15.273438 3.851562 -16 4.96875 -16.53125 C 6.082031 -17.070312 7.347656 -17.34375 8.765625 -17.34375 C 10.773438 -17.34375 12.253906 -16.898438 13.203125 -16.015625 C 14.148438 -15.140625 14.625 -13.925781 14.625 -12.375 L 14.625 -3.34375 C 14.625 -2.394531 15.023438 -1.921875 15.828125 -1.921875 C 16.097656 -1.921875 16.359375 -1.96875 16.609375 -2.0625 L 16.828125 -2 L 17.109375 -0.265625 C 16.929688 -0.140625 16.6875 -0.046875 16.375 0.015625 C 16.070312 0.0859375 15.765625 0.125 15.453125 0.125 C 14.515625 0.125 13.804688 -0.078125 13.328125 -0.484375 C 12.847656 -0.898438 12.539062 -1.507812 12.40625 -2.3125 L 12.078125 -2.34375 C 11.597656 -1.445312 10.945312 -0.773438 10.125 -0.328125 C 9.300781 0.109375 8.265625 0.328125 7.015625 0.328125 Z M 7.578125 -1.6875 C 8.523438 -1.6875 9.34375 -1.90625 10.03125 -2.34375 C 10.726562 -2.78125 11.257812 -3.394531 11.625 -4.1875 C 12 -4.976562 12.1875 -5.894531 12.1875 -6.9375 L 12.1875 -9.09375 L 11.90625 -9.15625 C 11.519531 -8.882812 11.050781 -8.660156 10.5 -8.484375 C 9.957031 -8.304688 9.195312 -8.144531 8.21875 -8 C 7.238281 -7.863281 6.457031 -7.65625 5.875 -7.375 C 5.289062 -7.09375 4.875 -6.738281 4.625 -6.3125 C 4.382812 -5.894531 4.265625 -5.367188 4.265625 -4.734375 C 4.265625 -3.734375 4.554688 -2.972656 5.140625 -2.453125 C 5.722656 -1.941406 6.535156 -1.6875 7.578125 -1.6875 Z M 7.578125 -1.6875 "/></g></g><g transform="translate(390.724611, 385.297487)"><g><path d="M 2.96875 0 L 2.96875 -17.03125 L 5.359375 -17.03125 L 5.359375 -14.359375 L 5.6875 -14.28125 C 6.476562 -16.207031 7.96875 -17.171875 10.15625 -17.171875 C 11.320312 -17.171875 12.191406 -16.960938 12.765625 -16.546875 L 12.109375 -14.421875 L 11.8125 -14.359375 C 11.164062 -14.671875 10.460938 -14.828125 9.703125 -14.828125 C 8.347656 -14.828125 7.304688 -14.316406 6.578125 -13.296875 C 5.847656 -12.285156 5.484375 -10.632812 5.484375 -8.34375 L 5.484375 0 Z M 2.96875 0 "/></g></g><g transform="translate(403.872084, 385.297487)"><g><path d="M 11.515625 -2.703125 L 12.3125 -0.890625 C 11.914062 -0.492188 11.390625 -0.191406 10.734375 0.015625 C 10.078125 0.222656 9.367188 0.328125 8.609375 0.328125 C 5.359375 0.328125 3.734375 -1.316406 3.734375 -4.609375 L 3.734375 -14.96875 L 0.765625 -14.96875 L 0.765625 -17.046875 L 3.734375 -17.046875 L 3.734375 -20.640625 L 6.25 -21.046875 L 6.25 -17.046875 L 11.734375 -17.046875 L 11.734375 -14.96875 L 6.25 -14.96875 L 6.25 -4.859375 C 6.25 -2.898438 7.097656 -1.921875 8.796875 -1.921875 C 9.722656 -1.921875 10.519531 -2.179688 11.1875 -2.703125 Z M 11.515625 -2.703125 "/></g></g></g><g fill="#ffffff" fill-opacity="1"><g transform="translate(416.633776, 385.297487)"><g><path d="M 16.21875 -7.9375 L 4.515625 -7.9375 C 4.585938 -5.863281 5.082031 -4.34375 6 -3.375 C 6.925781 -2.40625 8.191406 -1.921875 9.796875 -1.921875 C 11.015625 -1.921875 11.992188 -2.132812 12.734375 -2.5625 C 13.472656 -3 14.054688 -3.679688 14.484375 -4.609375 L 14.796875 -4.609375 L 16.4375 -3.640625 C 15.945312 -2.410156 15.15625 -1.441406 14.0625 -0.734375 C 12.976562 -0.0234375 11.554688 0.328125 9.796875 0.328125 C 8.148438 0.328125 6.734375 0.00390625 5.546875 -0.640625 C 4.367188 -1.296875 3.460938 -2.28125 2.828125 -3.59375 C 2.191406 -4.914062 1.875 -6.550781 1.875 -8.5 C 1.875 -10.4375 2.207031 -12.066406 2.875 -13.390625 C 3.550781 -14.722656 4.472656 -15.710938 5.640625 -16.359375 C 6.804688 -17.015625 8.140625 -17.34375 9.640625 -17.34375 C 11.828125 -17.34375 13.53125 -16.726562 14.75 -15.5 C 15.976562 -14.269531 16.597656 -12.445312 16.609375 -10.03125 C 16.609375 -9.082031 16.585938 -8.445312 16.546875 -8.125 Z M 14.125 -10.03125 C 14.082031 -11.84375 13.679688 -13.160156 12.921875 -13.984375 C 12.160156 -14.804688 11.066406 -15.21875 9.640625 -15.21875 C 8.148438 -15.21875 6.976562 -14.800781 6.125 -13.96875 C 5.28125 -13.144531 4.765625 -11.832031 4.578125 -10.03125 Z M 14.125 -10.03125 "/></g></g><g transform="translate(434.780992, 385.297487)"><g><path d="M 8.828125 0.328125 C 7.460938 0.328125 6.253906 0 5.203125 -0.65625 C 4.160156 -1.3125 3.34375 -2.296875 2.75 -3.609375 C 2.164062 -4.929688 1.875 -6.5625 1.875 -8.5 C 1.875 -10.445312 2.179688 -12.082031 2.796875 -13.40625 C 3.410156 -14.726562 4.257812 -15.710938 5.34375 -16.359375 C 6.425781 -17.015625 7.6875 -17.34375 9.125 -17.34375 C 10.25 -17.34375 11.265625 -17.128906 12.171875 -16.703125 C 13.078125 -16.273438 13.859375 -15.570312 14.515625 -14.59375 L 14.828125 -14.65625 L 14.828125 -23.859375 L 17.34375 -23.859375 L 17.34375 0 L 14.828125 0 L 14.828125 -2.484375 L 14.515625 -2.546875 C 13.953125 -1.703125 13.191406 -1.007812 12.234375 -0.46875 C 11.285156 0.0625 10.148438 0.328125 8.828125 0.328125 Z M 9.609375 -1.921875 C 11.203125 -1.921875 12.46875 -2.460938 13.40625 -3.546875 C 14.351562 -4.640625 14.828125 -6.289062 14.828125 -8.5 C 14.828125 -10.726562 14.351562 -12.382812 13.40625 -13.46875 C 12.46875 -14.550781 11.203125 -15.09375 9.609375 -15.09375 C 7.972656 -15.09375 6.710938 -14.5625 5.828125 -13.5 C 4.941406 -12.445312 4.5 -10.78125 4.5 -8.5 C 4.5 -4.113281 6.203125 -1.921875 9.609375 -1.921875 Z M 9.609375 -1.921875 "/></g></g></g><path fill="#41b8d5" d="M 474.886719 357.601562 L 511.464844 357.601562 C 511.652344 357.601562 511.8125 357.667969 511.941406 357.800781 C 512.074219 357.929688 512.140625 358.089844 512.140625 358.273438 L 512.140625 394.855469 C 512.140625 395.039062 512.074219 395.199219 511.941406 395.328125 C 511.8125 395.460938 511.652344 395.527344 511.464844 395.527344 L 474.886719 395.527344 C 474.703125 395.527344 474.542969 395.460938 474.410156 395.328125 C 474.28125 395.199219 474.214844 395.039062 474.214844 394.855469 L 474.214844 358.273438 C 474.214844 358.089844 474.28125 357.929688 474.410156 357.800781 C 474.542969 357.667969 474.703125 357.601562 474.886719 357.601562 Z M 474.886719 357.601562 " fill-opacity="1" fill-rule="nonzero"/><g fill="#ffffff" fill-opacity="1"><g transform="translate(516.84139, 385.297487)"><g><path d="M 11.484375 -22.5625 C 13.035156 -22.5625 14.363281 -22.28125 15.46875 -21.71875 C 16.582031 -21.164062 17.429688 -20.375 18.015625 -19.34375 C 18.597656 -18.3125 18.890625 -17.097656 18.890625 -15.703125 C 18.890625 -14.296875 18.597656 -13.078125 18.015625 -12.046875 C 17.429688 -11.023438 16.582031 -10.234375 15.46875 -9.671875 C 14.363281 -9.109375 13.035156 -8.828125 11.484375 -8.828125 L 6.0625 -8.828125 L 6.0625 0 L 3.40625 0 L 3.40625 -22.5625 Z M 11.40625 -11.09375 C 14.539062 -11.09375 16.109375 -12.628906 16.109375 -15.703125 C 16.109375 -18.773438 14.539062 -20.3125 11.40625 -20.3125 L 6.0625 -20.3125 L 6.0625 -11.09375 Z M 11.40625 -11.09375 "/></g></g></g><g fill="#ffffff" fill-opacity="1"><g transform="translate(536.516305, 385.297487)"><g><path d="M 16.21875 -7.9375 L 4.515625 -7.9375 C 4.585938 -5.863281 5.082031 -4.34375 6 -3.375 C 6.925781 -2.40625 8.191406 -1.921875 9.796875 -1.921875 C 11.015625 -1.921875 11.992188 -2.132812 12.734375 -2.5625 C 13.472656 -3 14.054688 -3.679688 14.484375 -4.609375 L 14.796875 -4.609375 L 16.4375 -3.640625 C 15.945312 -2.410156 15.15625 -1.441406 14.0625 -0.734375 C 12.976562 -0.0234375 11.554688 0.328125 9.796875 0.328125 C 8.148438 0.328125 6.734375 0.00390625 5.546875 -0.640625 C 4.367188 -1.296875 3.460938 -2.28125 2.828125 -3.59375 C 2.191406 -4.914062 1.875 -6.550781 1.875 -8.5 C 1.875 -10.4375 2.207031 -12.066406 2.875 -13.390625 C 3.550781 -14.722656 4.472656 -15.710938 5.640625 -16.359375 C 6.804688 -17.015625 8.140625 -17.34375 9.640625 -17.34375 C 11.828125 -17.34375 13.53125 -16.726562 14.75 -15.5 C 15.976562 -14.269531 16.597656 -12.445312 16.609375 -10.03125 C 16.609375 -9.082031 16.585938 -8.445312 16.546875 -8.125 Z M 14.125 -10.03125 C 14.082031 -11.84375 13.679688 -13.160156 12.921875 -13.984375 C 12.160156 -14.804688 11.066406 -15.21875 9.640625 -15.21875 C 8.148438 -15.21875 6.976562 -14.800781 6.125 -13.96875 C 5.28125 -13.144531 4.765625 -11.832031 4.578125 -10.03125 Z M 14.125 -10.03125 "/></g></g><g transform="translate(554.663521, 385.297487)"><g><path d="M 2.96875 0 L 2.96875 -17.03125 L 5.359375 -17.03125 L 5.359375 -14.359375 L 5.6875 -14.28125 C 6.25 -15.28125 6.96875 -16.039062 7.84375 -16.5625 C 8.726562 -17.082031 9.800781 -17.34375 11.0625 -17.34375 C 13.113281 -17.34375 14.597656 -16.820312 15.515625 -15.78125 C 16.441406 -14.738281 16.90625 -13.128906 16.90625 -10.953125 L 16.90625 0 L 14.390625 0 L 14.390625 -10.890625 C 14.390625 -11.921875 14.253906 -12.75 13.984375 -13.375 C 13.722656 -14 13.316406 -14.453125 12.765625 -14.734375 C 12.222656 -15.015625 11.503906 -15.15625 10.609375 -15.15625 C 9.066406 -15.15625 7.828125 -14.644531 6.890625 -13.625 C 5.953125 -12.613281 5.484375 -10.984375 5.484375 -8.734375 L 5.484375 0 Z M 2.96875 0 "/></g></g><g transform="translate(574.26128, 385.297487)"><g><path d="M 8.828125 0.328125 C 7.460938 0.328125 6.253906 0 5.203125 -0.65625 C 4.160156 -1.3125 3.34375 -2.296875 2.75 -3.609375 C 2.164062 -4.929688 1.875 -6.5625 1.875 -8.5 C 1.875 -10.445312 2.179688 -12.082031 2.796875 -13.40625 C 3.410156 -14.726562 4.257812 -15.710938 5.34375 -16.359375 C 6.425781 -17.015625 7.6875 -17.34375 9.125 -17.34375 C 10.25 -17.34375 11.265625 -17.128906 12.171875 -16.703125 C 13.078125 -16.273438 13.859375 -15.570312 14.515625 -14.59375 L 14.828125 -14.65625 L 14.828125 -23.859375 L 17.34375 -23.859375 L 17.34375 0 L 14.828125 0 L 14.828125 -2.484375 L 14.515625 -2.546875 C 13.953125 -1.703125 13.191406 -1.007812 12.234375 -0.46875 C 11.285156 0.0625 10.148438 0.328125 8.828125 0.328125 Z M 9.609375 -1.921875 C 11.203125 -1.921875 12.46875 -2.460938 13.40625 -3.546875 C 14.351562 -4.640625 14.828125 -6.289062 14.828125 -8.5 C 14.828125 -10.726562 14.351562 -12.382812 13.40625 -13.46875 C 12.46875 -14.550781 11.203125 -15.09375 9.609375 -15.09375 C 7.972656 -15.09375 6.710938 -14.5625 5.828125 -13.5 C 4.941406 -12.445312 4.5 -10.78125 4.5 -8.5 C 4.5 -4.113281 6.203125 -1.921875 9.609375 -1.921875 Z M 9.609375 -1.921875 "/></g></g><g transform="translate(594.584309, 385.297487)"><g><path d="M 4.234375 -20.3125 C 3.691406 -20.3125 3.253906 -20.476562 2.921875 -20.8125 C 2.585938 -21.144531 2.421875 -21.570312 2.421875 -22.09375 C 2.421875 -22.601562 2.585938 -23.023438 2.921875 -23.359375 C 3.253906 -23.691406 3.691406 -23.859375 4.234375 -23.859375 C 4.765625 -23.859375 5.195312 -23.691406 5.53125 -23.359375 C 5.863281 -23.023438 6.03125 -22.601562 6.03125 -22.09375 C 6.03125 -21.570312 5.863281 -21.144531 5.53125 -20.8125 C 5.195312 -20.476562 4.765625 -20.3125 4.234375 -20.3125 Z M 2.96875 0 L 2.96875 -17.03125 L 5.484375 -17.03125 L 5.484375 0 Z M 2.96875 0 "/></g></g><g transform="translate(603.025234, 385.297487)"><g><path d="M 2.96875 0 L 2.96875 -17.03125 L 5.359375 -17.03125 L 5.359375 -14.359375 L 5.6875 -14.28125 C 6.25 -15.28125 6.96875 -16.039062 7.84375 -16.5625 C 8.726562 -17.082031 9.800781 -17.34375 11.0625 -17.34375 C 13.113281 -17.34375 14.597656 -16.820312 15.515625 -15.78125 C 16.441406 -14.738281 16.90625 -13.128906 16.90625 -10.953125 L 16.90625 0 L 14.390625 0 L 14.390625 -10.890625 C 14.390625 -11.921875 14.253906 -12.75 13.984375 -13.375 C 13.722656 -14 13.316406 -14.453125 12.765625 -14.734375 C 12.222656 -15.015625 11.503906 -15.15625 10.609375 -15.15625 C 9.066406 -15.15625 7.828125 -14.644531 6.890625 -13.625 C 5.953125 -12.613281 5.484375 -10.984375 5.484375 -8.734375 L 5.484375 0 Z M 2.96875 0 "/></g></g><g transform="translate(622.622992, 385.297487)"><g><path d="M 8.765625 7.21875 C 6.078125 7.21875 4.113281 6.769531 2.875 5.875 C 1.644531 4.976562 1.03125 3.789062 1.03125 2.3125 C 1.03125 1.351562 1.316406 0.59375 1.890625 0.03125 C 2.472656 -0.53125 3.316406 -0.9375 4.421875 -1.1875 L 4.421875 -1.515625 C 3.890625 -1.804688 3.492188 -2.148438 3.234375 -2.546875 C 2.972656 -2.953125 2.84375 -3.4375 2.84375 -4 C 2.84375 -4.65625 3.050781 -5.1875 3.46875 -5.59375 C 3.882812 -6.007812 4.503906 -6.328125 5.328125 -6.546875 L 5.328125 -6.875 C 3.472656 -7.84375 2.546875 -9.429688 2.546875 -11.640625 C 2.546875 -12.742188 2.796875 -13.726562 3.296875 -14.59375 C 3.804688 -15.457031 4.53125 -16.128906 5.46875 -16.609375 C 6.40625 -17.097656 7.492188 -17.34375 8.734375 -17.34375 C 10.160156 -17.34375 11.351562 -17.03125 12.3125 -16.40625 C 12.675781 -16.8125 12.945312 -17.238281 13.125 -17.6875 C 13.300781 -18.144531 13.414062 -18.664062 13.46875 -19.25 L 13.796875 -19.453125 L 15.859375 -18.953125 C 15.765625 -18.085938 15.507812 -17.351562 15.09375 -16.75 C 14.675781 -16.15625 14.082031 -15.664062 13.3125 -15.28125 L 13.3125 -14.953125 C 13.863281 -14.523438 14.269531 -14.019531 14.53125 -13.4375 C 14.789062 -12.851562 14.921875 -12.175781 14.921875 -11.40625 C 14.921875 -10.332031 14.660156 -9.367188 14.140625 -8.515625 C 13.628906 -7.660156 12.90625 -6.988281 11.96875 -6.5 C 11.039062 -6.007812 9.960938 -5.765625 8.734375 -5.765625 C 8.585938 -5.765625 8.332031 -5.773438 7.96875 -5.796875 C 7.550781 -5.816406 7.242188 -5.828125 7.046875 -5.828125 C 6.515625 -5.828125 6.085938 -5.6875 5.765625 -5.40625 C 5.453125 -5.132812 5.296875 -4.785156 5.296875 -4.359375 C 5.296875 -3.816406 5.46875 -3.421875 5.8125 -3.171875 C 6.15625 -2.921875 6.722656 -2.78125 7.515625 -2.75 L 11.546875 -2.609375 C 13.285156 -2.546875 14.570312 -2.140625 15.40625 -1.390625 C 16.25 -0.648438 16.671875 0.40625 16.671875 1.78125 C 16.671875 2.789062 16.394531 3.703125 15.84375 4.515625 C 15.300781 5.335938 14.4375 5.992188 13.25 6.484375 C 12.070312 6.972656 10.578125 7.21875 8.765625 7.21875 Z M 8.734375 -7.9375 C 9.941406 -7.9375 10.875 -8.25 11.53125 -8.875 C 12.1875 -9.5 12.515625 -10.378906 12.515625 -11.515625 C 12.515625 -12.691406 12.1875 -13.597656 11.53125 -14.234375 C 10.882812 -14.867188 9.953125 -15.1875 8.734375 -15.1875 C 7.523438 -15.1875 6.597656 -14.867188 5.953125 -14.234375 C 5.316406 -13.597656 5 -12.691406 5 -11.515625 C 5 -10.367188 5.316406 -9.484375 5.953125 -8.859375 C 6.597656 -8.242188 7.523438 -7.9375 8.734375 -7.9375 Z M 8.765625 5.0625 C 10.023438 5.0625 11.050781 4.921875 11.84375 4.640625 C 12.644531 4.367188 13.21875 4.003906 13.5625 3.546875 C 13.914062 3.085938 14.09375 2.570312 14.09375 2 C 14.09375 1.5 13.992188 1.09375 13.796875 0.78125 C 13.609375 0.476562 13.300781 0.25 12.875 0.09375 C 12.457031 -0.0625 11.882812 -0.160156 11.15625 -0.203125 L 7.34375 -0.390625 L 6.8125 -0.390625 C 4.675781 -0.359375 3.609375 0.46875 3.609375 2.09375 C 3.609375 4.070312 5.328125 5.0625 8.765625 5.0625 Z M 8.765625 5.0625 "/></g></g></g><path fill="#2d8bba" d="M 662.085938 357.601562 L 698.664062 357.601562 C 698.851562 357.601562 699.011719 357.667969 699.140625 357.800781 C 699.273438 357.929688 699.339844 358.089844 699.339844 358.273438 L 699.339844 394.855469 C 699.339844 395.039062 699.273438 395.199219 699.140625 395.328125 C 699.011719 395.460938 698.851562 395.527344 698.664062 395.527344 L 662.085938 395.527344 C 661.902344 395.527344 661.742188 395.460938 661.609375 395.328125 C 661.480469 395.199219 661.414062 395.039062 661.414062 394.855469 L 661.414062 358.273438 C 661.414062 358.089844 661.480469 357.929688 661.609375 357.800781 C 661.742188 357.667969 661.902344 357.601562 662.085938 357.601562 Z M 662.085938 357.601562 " fill-opacity="1" fill-rule="nonzero"/><g fill="#ffffff" fill-opacity="1"><g transform="translate(705.389622, 385.297487)"><g><path d="M 12.46875 0.328125 C 10.488281 0.328125 8.726562 -0.125 7.1875 -1.03125 C 5.644531 -1.9375 4.4375 -3.257812 3.5625 -5 C 2.6875 -6.75 2.25 -8.84375 2.25 -11.28125 C 2.25 -13.71875 2.6875 -15.804688 3.5625 -17.546875 C 4.4375 -19.296875 5.644531 -20.625 7.1875 -21.53125 C 8.726562 -22.4375 10.488281 -22.890625 12.46875 -22.890625 C 14.582031 -22.890625 16.335938 -22.488281 17.734375 -21.6875 C 19.128906 -20.894531 20.140625 -19.695312 20.765625 -18.09375 L 19.0625 -16.96875 L 18.671875 -16.96875 C 18.054688 -18.25 17.253906 -19.160156 16.265625 -19.703125 C 15.273438 -20.242188 14.007812 -20.515625 12.46875 -20.515625 C 11.050781 -20.515625 9.789062 -20.195312 8.6875 -19.5625 C 7.582031 -18.925781 6.707031 -17.921875 6.0625 -16.546875 C 5.414062 -15.179688 5.09375 -13.425781 5.09375 -11.28125 C 5.09375 -9.144531 5.414062 -7.390625 6.0625 -6.015625 C 6.707031 -4.648438 7.582031 -3.648438 8.6875 -3.015625 C 9.789062 -2.378906 11.050781 -2.0625 12.46875 -2.0625 C 14.101562 -2.0625 15.441406 -2.429688 16.484375 -3.171875 C 17.523438 -3.910156 18.296875 -5.101562 18.796875 -6.75 L 19.1875 -6.75 L 20.953125 -5.859375 C 20.421875 -3.867188 19.429688 -2.335938 17.984375 -1.265625 C 16.535156 -0.203125 14.695312 0.328125 12.46875 0.328125 Z M 12.46875 0.328125 "/></g></g><g transform="translate(727.518114, 385.297487)"><g><path d="M 9.765625 0.328125 C 8.160156 0.328125 6.765625 -0.0078125 5.578125 -0.6875 C 4.390625 -1.375 3.472656 -2.378906 2.828125 -3.703125 C 2.191406 -5.023438 1.875 -6.625 1.875 -8.5 C 1.875 -10.382812 2.191406 -11.988281 2.828125 -13.3125 C 3.472656 -14.644531 4.390625 -15.648438 5.578125 -16.328125 C 6.765625 -17.003906 8.160156 -17.34375 9.765625 -17.34375 C 11.367188 -17.34375 12.765625 -17.003906 13.953125 -16.328125 C 15.148438 -15.648438 16.066406 -14.644531 16.703125 -13.3125 C 17.347656 -11.988281 17.671875 -10.382812 17.671875 -8.5 C 17.671875 -6.625 17.347656 -5.023438 16.703125 -3.703125 C 16.066406 -2.378906 15.148438 -1.375 13.953125 -0.6875 C 12.765625 -0.0078125 11.367188 0.328125 9.765625 0.328125 Z M 9.765625 -1.921875 C 11.460938 -1.921875 12.757812 -2.457031 13.65625 -3.53125 C 14.5625 -4.601562 15.015625 -6.257812 15.015625 -8.5 C 15.015625 -10.757812 14.5625 -12.421875 13.65625 -13.484375 C 12.757812 -14.554688 11.460938 -15.09375 9.765625 -15.09375 C 8.066406 -15.09375 6.765625 -14.554688 5.859375 -13.484375 C 4.953125 -12.410156 4.5 -10.75 4.5 -8.5 C 4.5 -6.257812 4.953125 -4.601562 5.859375 -3.53125 C 6.765625 -2.457031 8.066406 -1.921875 9.765625 -1.921875 Z M 9.765625 -1.921875 "/></g></g><g transform="translate(747.054147, 385.297487)"><g><path d="M 2.96875 0 L 2.96875 -17.03125 L 5.359375 -17.03125 L 5.359375 -14.515625 L 5.6875 -14.453125 C 6.257812 -15.398438 6.953125 -16.117188 7.765625 -16.609375 C 8.585938 -17.097656 9.570312 -17.34375 10.71875 -17.34375 C 12.03125 -17.34375 13.046875 -17.09375 13.765625 -16.59375 C 14.484375 -16.09375 15.046875 -15.289062 15.453125 -14.1875 L 15.78125 -14.1875 C 16.363281 -15.226562 17.082031 -16.015625 17.9375 -16.546875 C 18.800781 -17.078125 19.859375 -17.34375 21.109375 -17.34375 C 22.859375 -17.34375 24.160156 -16.867188 25.015625 -15.921875 C 25.878906 -14.984375 26.3125 -13.546875 26.3125 -11.609375 L 26.3125 0 L 23.796875 0 L 23.796875 -11.546875 C 23.796875 -12.773438 23.535156 -13.679688 23.015625 -14.265625 C 22.492188 -14.859375 21.660156 -15.15625 20.515625 -15.15625 C 19.148438 -15.15625 18.035156 -14.660156 17.171875 -13.671875 C 16.316406 -12.679688 15.890625 -11.054688 15.890625 -8.796875 L 15.890625 0 L 13.375 0 L 13.375 -11.546875 C 13.375 -12.773438 13.113281 -13.679688 12.59375 -14.265625 C 12.082031 -14.859375 11.25 -15.15625 10.09375 -15.15625 C 8.738281 -15.15625 7.628906 -14.675781 6.765625 -13.71875 C 5.910156 -12.757812 5.484375 -11.207031 5.484375 -9.0625 L 5.484375 0 Z M 2.96875 0 "/></g></g><g transform="translate(776.065002, 385.297487)"><g><path d="M 2.96875 6.90625 L 2.96875 -17.03125 L 5.484375 -17.03125 L 5.484375 -14.484375 L 5.796875 -14.421875 C 7.066406 -16.367188 8.925781 -17.34375 11.375 -17.34375 C 12.789062 -17.34375 14.03125 -17.019531 15.09375 -16.375 C 16.15625 -15.726562 16.976562 -14.742188 17.5625 -13.421875 C 18.144531 -12.097656 18.4375 -10.457031 18.4375 -8.5 C 18.4375 -6.5625 18.128906 -4.929688 17.515625 -3.609375 C 16.898438 -2.296875 16.046875 -1.3125 14.953125 -0.65625 C 13.859375 0 12.601562 0.328125 11.1875 0.328125 C 10.039062 0.328125 9.019531 0.128906 8.125 -0.265625 C 7.226562 -0.671875 6.453125 -1.332031 5.796875 -2.25 L 5.484375 -2.1875 L 5.484375 6.90625 Z M 10.640625 -1.921875 C 14.085938 -1.921875 15.8125 -4.113281 15.8125 -8.5 C 15.8125 -12.894531 14.085938 -15.09375 10.640625 -15.09375 C 9.628906 -15.09375 8.738281 -14.859375 7.96875 -14.390625 C 7.195312 -13.929688 6.585938 -13.207031 6.140625 -12.21875 C 5.703125 -11.238281 5.484375 -10 5.484375 -8.5 C 5.484375 -7.007812 5.703125 -5.769531 6.140625 -4.78125 C 6.585938 -3.800781 7.195312 -3.078125 7.96875 -2.609375 C 8.738281 -2.148438 9.628906 -1.921875 10.640625 -1.921875 Z M 10.640625 -1.921875 "/></g></g><g transform="translate(796.372601, 385.297487)"><g><path d="M 6.78125 0.328125 C 5.570312 0.328125 4.625 -0.015625 3.9375 -0.703125 C 3.25 -1.390625 2.90625 -2.410156 2.90625 -3.765625 L 2.90625 -23.859375 L 5.421875 -23.859375 L 5.421875 -3.9375 C 5.421875 -3.226562 5.554688 -2.710938 5.828125 -2.390625 C 6.097656 -2.078125 6.519531 -1.921875 7.09375 -1.921875 C 7.445312 -1.921875 7.804688 -1.976562 8.171875 -2.09375 L 8.375 -2.03125 L 8.671875 -0.0625 C 8.484375 0.0625 8.21875 0.15625 7.875 0.21875 C 7.53125 0.289062 7.164062 0.328125 6.78125 0.328125 Z M 6.78125 0.328125 "/></g></g><g transform="translate(805.631385, 385.297487)"><g><path d="M 16.21875 -7.9375 L 4.515625 -7.9375 C 4.585938 -5.863281 5.082031 -4.34375 6 -3.375 C 6.925781 -2.40625 8.191406 -1.921875 9.796875 -1.921875 C 11.015625 -1.921875 11.992188 -2.132812 12.734375 -2.5625 C 13.472656 -3 14.054688 -3.679688 14.484375 -4.609375 L 14.796875 -4.609375 L 16.4375 -3.640625 C 15.945312 -2.410156 15.15625 -1.441406 14.0625 -0.734375 C 12.976562 -0.0234375 11.554688 0.328125 9.796875 0.328125 C 8.148438 0.328125 6.734375 0.00390625 5.546875 -0.640625 C 4.367188 -1.296875 3.460938 -2.28125 2.828125 -3.59375 C 2.191406 -4.914062 1.875 -6.550781 1.875 -8.5 C 1.875 -10.4375 2.207031 -12.066406 2.875 -13.390625 C 3.550781 -14.722656 4.472656 -15.710938 5.640625 -16.359375 C 6.804688 -17.015625 8.140625 -17.34375 9.640625 -17.34375 C 11.828125 -17.34375 13.53125 -16.726562 14.75 -15.5 C 15.976562 -14.269531 16.597656 -12.445312 16.609375 -10.03125 C 16.609375 -9.082031 16.585938 -8.445312 16.546875 -8.125 Z M 14.125 -10.03125 C 14.082031 -11.84375 13.679688 -13.160156 12.921875 -13.984375 C 12.160156 -14.804688 11.066406 -15.21875 9.640625 -15.21875 C 8.148438 -15.21875 6.976562 -14.800781 6.125 -13.96875 C 5.28125 -13.144531 4.765625 -11.832031 4.578125 -10.03125 Z M 14.125 -10.03125 "/></g></g><g transform="translate(823.7786, 385.297487)"><g><path d="M 11.515625 -2.703125 L 12.3125 -0.890625 C 11.914062 -0.492188 11.390625 -0.191406 10.734375 0.015625 C 10.078125 0.222656 9.367188 0.328125 8.609375 0.328125 C 5.359375 0.328125 3.734375 -1.316406 3.734375 -4.609375 L 3.734375 -14.96875 L 0.765625 -14.96875 L 0.765625 -17.046875 L 3.734375 -17.046875 L 3.734375 -20.640625 L 6.25 -21.046875 L 6.25 -17.046875 L 11.734375 -17.046875 L 11.734375 -14.96875 L 6.25 -14.96875 L 6.25 -4.859375 C 6.25 -2.898438 7.097656 -1.921875 8.796875 -1.921875 C 9.722656 -1.921875 10.519531 -2.179688 11.1875 -2.703125 Z M 11.515625 -2.703125 "/></g></g></g><g fill="#ffffff" fill-opacity="1"><g transform="translate(836.54029, 385.297487)"><g><path d="M 16.21875 -7.9375 L 4.515625 -7.9375 C 4.585938 -5.863281 5.082031 -4.34375 6 -3.375 C 6.925781 -2.40625 8.191406 -1.921875 9.796875 -1.921875 C 11.015625 -1.921875 11.992188 -2.132812 12.734375 -2.5625 C 13.472656 -3 14.054688 -3.679688 14.484375 -4.609375 L 14.796875 -4.609375 L 16.4375 -3.640625 C 15.945312 -2.410156 15.15625 -1.441406 14.0625 -0.734375 C 12.976562 -0.0234375 11.554688 0.328125 9.796875 0.328125 C 8.148438 0.328125 6.734375 0.00390625 5.546875 -0.640625 C 4.367188 -1.296875 3.460938 -2.28125 2.828125 -3.59375 C 2.191406 -4.914062 1.875 -6.550781 1.875 -8.5 C 1.875 -10.4375 2.207031 -12.066406 2.875 -13.390625 C 3.550781 -14.722656 4.472656 -15.710938 5.640625 -16.359375 C 6.804688 -17.015625 8.140625 -17.34375 9.640625 -17.34375 C 11.828125 -17.34375 13.53125 -16.726562 14.75 -15.5 C 15.976562 -14.269531 16.597656 -12.445312 16.609375 -10.03125 C 16.609375 -9.082031 16.585938 -8.445312 16.546875 -8.125 Z M 14.125 -10.03125 C 14.082031 -11.84375 13.679688 -13.160156 12.921875 -13.984375 C 12.160156 -14.804688 11.066406 -15.21875 9.640625 -15.21875 C 8.148438 -15.21875 6.976562 -14.800781 6.125 -13.96875 C 5.28125 -13.144531 4.765625 -11.832031 4.578125 -10.03125 Z M 14.125 -10.03125 "/></g></g></g><path fill="#6ce5e8" d="M 546.632812 408.976562 C 553.183594 408.976562 559.730469 409.136719 566.273438 409.457031 C 572.816406 409.777344 579.347656 410.261719 585.867188 410.902344 C 592.386719 411.542969 598.886719 412.347656 605.367188 413.308594 C 611.84375 414.269531 618.296875 415.386719 624.722656 416.664062 C 631.148438 417.945312 637.535156 419.378906 643.890625 420.96875 C 650.246094 422.5625 656.558594 424.308594 662.824219 426.210938 C 669.09375 428.113281 675.3125 430.167969 681.480469 432.371094 C 687.648438 434.578125 693.757812 436.9375 699.808594 439.445312 C 705.863281 441.949219 711.847656 444.605469 717.769531 447.40625 C 723.691406 450.207031 729.542969 453.148438 735.320312 456.238281 C 741.097656 459.324219 746.792969 462.554688 752.414062 465.921875 C 758.03125 469.289062 763.566406 472.792969 769.011719 476.433594 C 774.457031 480.070312 779.8125 483.84375 785.074219 487.746094 C 790.335938 491.648438 795.5 495.675781 800.5625 499.832031 C 805.625 503.988281 810.585938 508.265625 815.4375 512.664062 C 820.292969 517.0625 825.035156 521.578125 829.667969 526.210938 C 834.300781 530.84375 838.816406 535.585938 843.214844 540.441406 C 847.613281 545.292969 851.890625 550.253906 856.046875 555.316406 C 860.203125 560.378906 864.230469 565.542969 868.132812 570.804688 C 872.035156 576.066406 875.804688 581.421875 879.445312 586.867188 C 883.085938 592.3125 886.589844 597.847656 889.957031 603.464844 C 893.324219 609.082031 896.550781 614.78125 899.640625 620.558594 C 902.726562 626.335938 905.671875 632.183594 908.472656 638.105469 C 911.273438 644.027344 913.929688 650.015625 916.433594 656.066406 C 918.941406 662.121094 921.296875 668.230469 923.503906 674.398438 C 925.710938 680.566406 927.765625 686.785156 929.667969 693.050781 C 931.570312 699.320312 933.316406 705.632812 934.90625 711.988281 C 936.5 718.339844 937.933594 724.730469 939.210938 731.15625 C 940.492188 737.582031 941.609375 744.03125 942.570312 750.511719 C 943.53125 756.992188 944.335938 763.492188 944.976562 770.011719 C 945.617188 776.53125 946.101562 783.0625 946.421875 789.605469 C 946.742188 796.148438 946.902344 802.695312 946.902344 809.246094 C 946.902344 815.796875 946.742188 822.34375 946.421875 828.886719 C 946.101562 835.425781 945.617188 841.957031 944.976562 848.476562 C 944.335938 854.996094 943.53125 861.496094 942.570312 867.976562 C 941.609375 874.457031 940.492188 880.910156 939.210938 887.332031 C 937.933594 893.757812 936.5 900.148438 934.90625 906.503906 C 933.316406 912.855469 931.570312 919.167969 929.667969 925.4375 C 927.765625 931.707031 925.710938 937.921875 923.503906 944.089844 C 921.296875 950.257812 918.941406 956.367188 916.433594 962.421875 C 913.929688 968.472656 911.273438 974.460938 908.472656 980.382812 C 905.671875 986.304688 902.726562 992.152344 899.640625 997.929688 C 896.550781 1003.707031 893.324219 1009.40625 889.957031 1015.023438 C 886.589844 1020.644531 883.085938 1026.175781 879.445312 1031.621094 C 875.804688 1037.070312 872.035156 1042.421875 868.132812 1047.683594 C 864.230469 1052.945312 860.203125 1058.109375 856.046875 1063.171875 C 851.890625 1068.238281 847.613281 1073.195312 843.214844 1078.050781 C 838.816406 1082.902344 834.300781 1087.644531 829.667969 1092.277344 C 825.035156 1096.910156 820.292969 1101.425781 815.4375 1105.824219 C 810.585938 1110.222656 805.625 1114.5 800.5625 1118.65625 C 795.5 1122.8125 790.335938 1126.84375 785.074219 1130.746094 C 779.8125 1134.648438 774.457031 1138.417969 769.011719 1142.058594 C 763.566406 1145.695312 758.03125 1149.199219 752.414062 1152.566406 C 746.792969 1155.933594 741.097656 1159.164062 735.320312 1162.25 C 729.542969 1165.339844 723.691406 1168.285156 717.769531 1171.085938 C 711.847656 1173.886719 705.863281 1176.539062 699.808594 1179.046875 C 693.757812 1181.550781 687.648438 1183.910156 681.480469 1186.117188 C 675.3125 1188.324219 669.09375 1190.378906 662.824219 1192.277344 C 656.558594 1194.179688 650.246094 1195.925781 643.890625 1197.519531 C 637.535156 1199.109375 631.148438 1200.546875 624.722656 1201.824219 C 618.296875 1203.101562 611.84375 1204.222656 605.367188 1205.183594 C 598.886719 1206.144531 592.386719 1206.945312 585.867188 1207.585938 C 579.347656 1208.230469 572.816406 1208.710938 566.273438 1209.03125 C 559.730469 1209.355469 553.183594 1209.515625 546.632812 1209.515625 L 546.632812 1009.378906 C 549.910156 1009.378906 553.183594 1009.300781 556.453125 1009.136719 C 559.726562 1008.976562 562.992188 1008.738281 566.25 1008.414062 C 569.511719 1008.09375 572.757812 1007.695312 576 1007.214844 C 579.238281 1006.734375 582.464844 1006.171875 585.679688 1005.535156 C 588.890625 1004.894531 592.085938 1004.175781 595.261719 1003.382812 C 598.441406 1002.585938 601.59375 1001.710938 604.730469 1000.761719 C 607.863281 999.8125 610.972656 998.785156 614.058594 997.679688 C 617.140625 996.578125 620.195312 995.398438 623.222656 994.144531 C 626.25 992.890625 629.242188 991.566406 632.203125 990.164062 C 635.164062 988.765625 638.089844 987.292969 640.976562 985.746094 C 643.867188 984.203125 646.714844 982.589844 649.523438 980.90625 C 652.332031 979.222656 655.097656 977.46875 657.824219 975.652344 C 660.546875 973.832031 663.222656 971.945312 665.855469 969.996094 C 668.484375 968.042969 671.066406 966.027344 673.597656 963.949219 C 676.128906 961.875 678.609375 959.734375 681.035156 957.535156 C 683.464844 955.335938 685.835938 953.078125 688.152344 950.761719 C 690.464844 948.445312 692.722656 946.074219 694.925781 943.648438 C 697.125 941.21875 699.261719 938.742188 701.339844 936.207031 C 703.417969 933.675781 705.433594 931.09375 707.382812 928.464844 C 709.335938 925.832031 711.21875 923.15625 713.039062 920.433594 C 714.859375 917.710938 716.609375 914.945312 718.296875 912.132812 C 719.980469 909.324219 721.59375 906.476562 723.136719 903.585938 C 724.679688 900.699219 726.152344 897.773438 727.554688 894.8125 C 728.953125 891.851562 730.28125 888.859375 731.535156 885.832031 C 732.789062 882.808594 733.964844 879.75 735.070312 876.667969 C 736.171875 873.585938 737.199219 870.476562 738.152344 867.339844 C 739.101562 864.207031 739.976562 861.050781 740.769531 857.875 C 741.566406 854.695312 742.285156 851.5 742.921875 848.289062 C 743.5625 845.078125 744.121094 841.851562 744.601562 838.609375 C 745.082031 835.371094 745.484375 832.121094 745.804688 828.859375 C 746.125 825.601562 746.367188 822.335938 746.527344 819.066406 C 746.6875 815.792969 746.769531 812.519531 746.769531 809.246094 C 746.769531 805.96875 746.6875 802.695312 746.527344 799.425781 C 746.367188 796.152344 746.125 792.886719 745.804688 789.628906 C 745.484375 786.367188 745.082031 783.117188 744.601562 779.878906 C 744.121094 776.640625 743.5625 773.414062 742.921875 770.199219 C 742.285156 766.988281 741.566406 763.792969 740.769531 760.617188 C 739.976562 757.4375 739.101562 754.28125 738.152344 751.148438 C 737.199219 748.015625 736.171875 744.90625 735.070312 741.820312 C 733.964844 738.738281 732.789062 735.683594 731.535156 732.65625 C 730.28125 729.628906 728.953125 726.636719 727.554688 723.675781 C 726.152344 720.714844 724.679688 717.789062 723.136719 714.902344 C 721.59375 712.011719 719.980469 709.164062 718.296875 706.355469 C 716.609375 703.546875 714.859375 700.777344 713.039062 698.054688 C 711.21875 695.332031 709.335938 692.65625 707.382812 690.023438 C 705.433594 687.394531 703.417969 684.8125 701.339844 682.28125 C 699.261719 679.75 697.125 677.269531 694.925781 674.84375 C 692.722656 672.414062 690.464844 670.042969 688.152344 667.726562 C 685.835938 665.410156 683.464844 663.152344 681.035156 660.953125 C 678.609375 658.753906 676.128906 656.617188 673.597656 654.539062 C 671.066406 652.460938 668.484375 650.445312 665.855469 648.496094 C 663.222656 646.542969 660.546875 644.65625 657.824219 642.839844 C 655.097656 641.019531 652.332031 639.265625 649.523438 637.582031 C 646.714844 635.898438 643.867188 634.285156 640.976562 632.742188 C 638.089844 631.199219 635.164062 629.726562 632.203125 628.324219 C 629.242188 626.925781 626.25 625.597656 623.222656 624.34375 C 620.195312 623.089844 617.140625 621.914062 614.058594 620.808594 C 610.972656 619.707031 607.863281 618.679688 604.730469 617.726562 C 601.59375 616.777344 598.441406 615.902344 595.261719 615.109375 C 592.085938 614.3125 588.890625 613.59375 585.679688 612.957031 C 582.464844 612.316406 579.238281 611.757812 576 611.277344 C 572.757812 610.796875 569.511719 610.394531 566.25 610.074219 C 562.992188 609.753906 559.726562 609.511719 556.453125 609.351562 C 553.183594 609.191406 549.910156 609.109375 546.632812 609.109375 Z M 546.632812 408.976562 " fill-opacity="1" fill-rule="nonzero"/><path fill="#41b8d5" d="M 546.632812 1209.515625 C 542.046875 1209.515625 537.464844 1209.4375 532.882812 1209.277344 C 528.300781 1209.121094 523.722656 1208.882812 519.148438 1208.570312 C 514.574219 1208.253906 510.007812 1207.863281 505.445312 1207.390625 C 500.886719 1206.917969 496.332031 1206.367188 491.792969 1205.738281 C 487.25 1205.113281 482.71875 1204.40625 478.203125 1203.621094 C 473.683594 1202.835938 469.183594 1201.976562 464.695312 1201.039062 C 460.207031 1200.097656 455.734375 1199.082031 451.285156 1197.992188 C 446.832031 1196.898438 442.398438 1195.730469 437.984375 1194.488281 C 433.570312 1193.242188 429.179688 1191.921875 424.8125 1190.527344 C 420.445312 1189.132812 416.105469 1187.660156 411.785156 1186.117188 C 407.46875 1184.570312 403.179688 1182.953125 398.917969 1181.261719 C 394.65625 1179.570312 390.425781 1177.804688 386.226562 1175.96875 C 382.023438 1174.128906 377.855469 1172.21875 373.722656 1170.238281 C 369.585938 1168.257812 365.488281 1166.207031 361.421875 1164.085938 C 357.359375 1161.964844 353.332031 1159.773438 349.339844 1157.515625 C 345.351562 1155.253906 341.402344 1152.925781 337.492188 1150.53125 C 333.582031 1148.136719 329.71875 1145.671875 325.890625 1143.144531 C 322.066406 1140.617188 318.285156 1138.023438 314.550781 1135.363281 C 310.816406 1132.707031 307.125 1129.984375 303.484375 1127.199219 C 299.84375 1124.414062 296.25 1121.566406 292.707031 1118.65625 C 289.160156 1115.75 285.667969 1112.78125 282.226562 1109.75 C 278.78125 1106.722656 275.394531 1103.636719 272.058594 1100.488281 C 268.722656 1097.34375 265.441406 1094.144531 262.214844 1090.886719 C 258.988281 1087.628906 255.820312 1084.316406 252.707031 1080.949219 C 249.59375 1077.582031 246.539062 1074.160156 243.546875 1070.691406 C 240.550781 1067.21875 237.617188 1063.695312 234.742188 1060.125 C 231.871094 1056.550781 229.058594 1052.929688 226.308594 1049.261719 C 223.558594 1045.589844 220.875 1041.875 218.25 1038.113281 C 215.628906 1034.351562 213.074219 1030.546875 210.582031 1026.699219 C 208.09375 1022.847656 205.667969 1018.957031 203.3125 1015.023438 C 200.953125 1011.089844 198.664062 1007.121094 196.445312 1003.109375 C 194.222656 999.097656 192.070312 995.046875 189.992188 990.964844 C 187.910156 986.878906 185.898438 982.757812 183.957031 978.605469 C 182.019531 974.449219 180.148438 970.261719 178.355469 966.042969 C 176.558594 961.824219 174.835938 957.578125 173.183594 953.300781 C 171.535156 949.023438 169.957031 944.71875 168.457031 940.386719 C 166.953125 936.054688 165.527344 931.695312 164.175781 927.316406 C 162.820312 922.933594 161.546875 918.53125 160.34375 914.105469 C 159.144531 909.683594 158.019531 905.238281 156.96875 900.773438 C 155.921875 896.308594 154.949219 891.832031 154.054688 887.332031 C 153.160156 882.835938 152.34375 878.324219 151.605469 873.800781 C 150.863281 869.273438 150.203125 864.738281 149.621094 860.191406 C 149.035156 855.644531 148.53125 851.085938 148.101562 846.523438 C 147.675781 841.957031 147.328125 837.386719 147.058594 832.808594 C 146.789062 828.230469 146.597656 823.652344 146.484375 819.066406 C 146.371094 814.484375 146.339844 809.898438 146.382812 805.316406 C 146.429688 800.730469 146.550781 796.148438 146.753906 791.566406 C 146.957031 786.984375 147.238281 782.410156 147.597656 777.839844 C 147.957031 773.269531 148.394531 768.707031 148.914062 764.148438 C 149.429688 759.59375 150.023438 755.046875 150.695312 750.511719 C 151.367188 745.976562 152.121094 741.453125 152.949219 736.945312 C 153.777344 732.4375 154.679688 727.941406 155.664062 723.464844 C 156.644531 718.984375 157.707031 714.523438 158.839844 710.082031 C 159.976562 705.640625 161.1875 701.21875 162.476562 696.816406 C 163.765625 692.417969 165.128906 688.039062 166.566406 683.6875 C 168.003906 679.332031 169.515625 675.007812 171.105469 670.703125 C 172.691406 666.402344 174.351562 662.128906 176.085938 657.886719 C 177.820312 653.640625 179.625 649.425781 181.503906 645.246094 C 183.382812 641.0625 185.332031 636.914062 187.351562 632.796875 C 189.375 628.683594 191.464844 624.601562 193.628906 620.558594 C 195.789062 616.515625 198.019531 612.507812 200.316406 608.542969 C 202.617188 604.574219 204.984375 600.648438 207.417969 596.765625 C 209.851562 592.878906 212.351562 589.035156 214.917969 585.234375 C 217.484375 581.4375 220.113281 577.679688 222.808594 573.972656 L 384.722656 691.609375 C 382.027344 695.320312 379.460938 699.117188 377.027344 703.003906 C 374.589844 706.890625 372.292969 710.855469 370.128906 714.902344 C 367.96875 718.945312 365.949219 723.0625 364.070312 727.246094 C 362.191406 731.429688 360.457031 735.671875 358.867188 739.972656 C 357.28125 744.277344 355.84375 748.628906 354.554688 753.03125 C 353.265625 757.433594 352.132812 761.875 351.148438 766.355469 C 350.164062 770.832031 349.339844 775.34375 348.664062 779.878906 C 347.992188 784.414062 347.476562 788.96875 347.117188 793.542969 C 346.757812 798.113281 346.554688 802.695312 346.507812 807.28125 C 346.464844 811.867188 346.574219 816.449219 346.847656 821.027344 C 347.117188 825.605469 347.542969 830.167969 348.125 834.71875 C 348.710938 839.265625 349.449219 843.789062 350.34375 848.289062 C 351.238281 852.789062 352.289062 857.25 353.488281 861.675781 C 354.691406 866.101562 356.042969 870.480469 357.546875 874.816406 C 359.046875 879.148438 360.699219 883.425781 362.492188 887.644531 C 364.289062 891.863281 366.230469 896.015625 368.3125 900.105469 C 370.394531 904.191406 372.613281 908.199219 374.972656 912.132812 C 377.332031 916.070312 379.820312 919.917969 382.441406 923.679688 C 385.066406 927.441406 387.8125 931.109375 390.6875 934.683594 C 393.5625 938.257812 396.558594 941.726562 399.671875 945.097656 C 402.785156 948.464844 406.007812 951.722656 409.347656 954.867188 C 412.683594 958.011719 416.125 961.042969 419.667969 963.949219 C 423.214844 966.859375 426.855469 969.644531 430.59375 972.304688 C 434.328125 974.964844 438.152344 977.492188 442.0625 979.886719 C 445.972656 982.285156 449.960938 984.542969 454.027344 986.664062 C 458.09375 988.789062 462.226562 990.769531 466.429688 992.605469 C 470.632812 994.445312 474.890625 996.136719 479.210938 997.679688 C 483.527344 999.226562 487.894531 1000.621094 492.308594 1001.867188 C 496.722656 1003.109375 501.175781 1004.203125 505.664062 1005.140625 C 510.152344 1006.078125 514.667969 1006.863281 519.210938 1007.492188 C 523.757812 1008.121094 528.316406 1008.59375 532.890625 1008.90625 C 537.464844 1009.222656 542.046875 1009.378906 546.632812 1009.378906 Z M 546.632812 1209.515625 " fill-opacity="1" fill-rule="nonzero"/><path fill="#2d8bba" d="M 222.808594 573.972656 C 227.429688 567.613281 232.234375 561.394531 237.21875 555.316406 C 242.207031 549.242188 247.367188 543.316406 252.703125 537.542969 C 258.039062 531.773438 263.539062 526.160156 269.207031 520.714844 C 274.871094 515.265625 280.695312 509.988281 286.671875 504.882812 C 292.648438 499.777344 298.769531 494.851562 305.039062 490.109375 C 311.304688 485.363281 317.707031 480.808594 324.242188 476.441406 C 330.777344 472.074219 337.4375 467.902344 344.21875 463.925781 C 351 459.953125 357.894531 456.179688 364.898438 452.609375 C 371.902344 449.042969 379.003906 445.683594 386.207031 442.53125 C 393.40625 439.378906 400.695312 436.445312 408.070312 433.722656 C 415.445312 431.003906 422.894531 428.5 430.414062 426.21875 C 437.9375 423.9375 445.519531 421.875 453.164062 420.042969 C 460.808594 418.207031 468.496094 416.597656 476.234375 415.214844 C 483.972656 413.832031 491.746094 412.679688 499.550781 411.753906 C 507.359375 410.828125 515.183594 410.132812 523.03125 409.671875 C 530.878906 409.207031 538.734375 408.976562 546.59375 408.976562 L 546.613281 609.109375 C 542.683594 609.109375 538.757812 609.226562 534.832031 609.457031 C 530.910156 609.691406 526.996094 610.035156 523.09375 610.5 C 519.191406 610.960938 515.304688 611.539062 511.433594 612.230469 C 507.566406 612.921875 503.71875 613.726562 499.898438 614.644531 C 496.078125 615.5625 492.285156 616.589844 488.523438 617.730469 C 484.761719 618.871094 481.039062 620.125 477.351562 621.484375 C 473.664062 622.84375 470.019531 624.3125 466.417969 625.886719 C 462.820312 627.464844 459.265625 629.144531 455.765625 630.925781 C 452.261719 632.710938 448.816406 634.597656 445.425781 636.585938 C 442.035156 638.574219 438.707031 640.660156 435.4375 642.84375 C 432.171875 645.027344 428.96875 647.304688 425.835938 649.675781 C 422.703125 652.050781 419.640625 654.511719 416.652344 657.0625 C 413.664062 659.617188 410.753906 662.253906 407.921875 664.980469 C 405.085938 667.703125 402.335938 670.507812 399.667969 673.394531 C 397 676.28125 394.421875 679.242188 391.925781 682.28125 C 389.433594 685.320312 387.03125 688.429688 384.722656 691.609375 Z M 222.808594 573.972656 " fill-opacity="1" fill-rule="nonzero"/><g fill="#ff0000" fill-opacity="1"><g transform="translate(392.913109, 848.284491)"><g><path d="M 3.1875 -67.609375 C 2.359375 -67.609375 1.65625 -66.890625 1.65625 -66.0625 L 1.65625 -57.90625 C 1.65625 -57.078125 2.359375 -56.375 3.1875 -56.375 L 13.828125 -56.375 C 14.65625 -56.375 15.359375 -57.078125 15.359375 -57.90625 L 15.359375 -66.0625 C 15.359375 -66.890625 16.078125 -67.609375 16.90625 -67.609375 L 20.6875 -67.609375 C 21.515625 -67.609375 22.21875 -66.890625 22.21875 -66.0625 L 22.21875 -12.765625 C 22.21875 -11.9375 21.515625 -11.234375 20.6875 -11.234375 L 3.1875 -11.234375 C 2.359375 -11.234375 1.65625 -10.515625 1.65625 -9.6875 L 1.65625 -1.53125 C 1.65625 -0.703125 2.359375 0 3.1875 0 L 54.953125 0 C 55.78125 0 56.5 -0.703125 56.5 -1.53125 L 56.5 -9.6875 C 56.5 -10.515625 55.78125 -11.234375 54.953125 -11.234375 L 37.46875 -11.234375 C 36.640625 -11.234375 35.921875 -11.9375 35.921875 -12.765625 L 35.921875 -77.296875 C 35.921875 -78.125 35.21875 -78.828125 34.390625 -78.828125 L 16.90625 -78.828125 C 16.078125 -78.828125 15.359375 -78.125 15.359375 -77.296875 L 15.359375 -74.8125 C 15.359375 -73.984375 14.65625 -73.28125 13.828125 -73.28125 L 10.046875 -73.28125 C 9.21875 -73.28125 8.515625 -72.5625 8.515625 -71.734375 L 8.515625 -69.140625 C 8.515625 -68.3125 7.796875 -67.609375 6.96875 -67.609375 Z M 3.1875 -67.609375 "/></g></g></g><g fill="#ff0000" fill-opacity="1"><g transform="translate(457.56191, 848.284491)"><g><path d="M 56.5 -66.0625 C 56.5 -66.890625 55.78125 -67.609375 54.953125 -67.609375 L 51.171875 -67.609375 C 50.34375 -67.609375 49.640625 -68.3125 49.640625 -69.140625 L 49.640625 -71.734375 C 49.640625 -72.5625 48.921875 -73.28125 48.109375 -73.28125 L 44.3125 -73.28125 C 43.5 -73.28125 42.78125 -73.984375 42.78125 -74.8125 L 42.78125 -77.296875 C 42.78125 -78.125 42.078125 -78.828125 41.25 -78.828125 L 16.90625 -78.828125 C 16.078125 -78.828125 15.359375 -78.125 15.359375 -77.296875 L 15.359375 -74.8125 C 15.359375 -73.984375 14.65625 -73.28125 13.828125 -73.28125 L 10.046875 -73.28125 C 9.21875 -73.28125 8.515625 -72.5625 8.515625 -71.734375 L 8.515625 -69.140625 C 8.515625 -68.3125 7.796875 -67.609375 6.96875 -67.609375 L 3.1875 -67.609375 C 2.359375 -67.609375 1.65625 -66.890625 1.65625 -66.0625 L 1.65625 -57.796875 C 1.65625 -56.96875 2.359375 -56.25 3.1875 -56.25 L 13.828125 -56.25 C 14.65625 -56.25 15.359375 -56.96875 15.359375 -57.796875 L 15.359375 -66.0625 C 15.359375 -66.890625 16.078125 -67.609375 16.90625 -67.609375 L 41.25 -67.609375 C 42.078125 -67.609375 42.78125 -66.890625 42.78125 -66.0625 L 42.78125 -56.25 C 42.78125 -55.4375 42.078125 -54.71875 41.25 -54.71875 L 37.46875 -54.71875 C 36.640625 -54.71875 35.921875 -54.015625 35.921875 -53.1875 L 35.921875 -46.453125 C 35.921875 -45.625 35.21875 -44.90625 34.390625 -44.90625 L 16.90625 -44.90625 C 16.078125 -44.90625 15.359375 -44.203125 15.359375 -43.375 L 15.359375 -35.21875 C 15.359375 -34.390625 16.078125 -33.6875 16.90625 -33.6875 L 41.25 -33.6875 C 42.078125 -33.6875 42.78125 -32.96875 42.78125 -32.140625 L 42.78125 -12.765625 C 42.78125 -11.9375 42.078125 -11.234375 41.25 -11.234375 L 16.90625 -11.234375 C 16.078125 -11.234375 15.359375 -11.9375 15.359375 -12.765625 L 15.359375 -20.921875 C 15.359375 -21.75 14.65625 -22.453125 13.828125 -22.453125 L 3.1875 -22.453125 C 2.359375 -22.453125 1.65625 -21.75 1.65625 -20.921875 L 1.65625 -12.765625 C 1.65625 -11.9375 2.359375 -11.234375 3.1875 -11.234375 L 6.96875 -11.234375 C 7.796875 -11.234375 8.515625 -10.515625 8.515625 -9.6875 L 8.515625 -7.203125 C 8.515625 -6.375 9.21875 -5.671875 10.046875 -5.671875 L 13.828125 -5.671875 C 14.65625 -5.671875 15.359375 -4.96875 15.359375 -4.140625 L 15.359375 -1.53125 C 15.359375 -0.703125 16.078125 0 16.90625 0 L 41.25 0 C 42.078125 0 42.78125 -0.703125 42.78125 -1.53125 L 42.78125 -4.140625 C 42.78125 -4.96875 43.5 -5.671875 44.3125 -5.671875 L 48.109375 -5.671875 C 48.921875 -5.671875 49.640625 -6.375 49.640625 -7.203125 L 49.640625 -9.6875 C 49.640625 -10.515625 50.34375 -11.234375 51.171875 -11.234375 L 54.953125 -11.234375 C 55.78125 -11.234375 56.5 -11.9375 56.5 -12.765625 L 56.5 -32.140625 C 56.5 -32.96875 55.78125 -33.6875 54.953125 -33.6875 L 51.171875 -33.6875 C 50.34375 -33.6875 49.640625 -34.390625 49.640625 -35.21875 L 49.640625 -37.8125 C 49.640625 -38.640625 48.921875 -39.359375 48.109375 -39.359375 L 44.3125 -39.359375 C 43.5 -39.359375 42.78125 -40.0625 42.78125 -40.890625 L 42.78125 -43.375 C 42.78125 -44.203125 43.5 -44.90625 44.3125 -44.90625 L 48.109375 -44.90625 C 48.921875 -44.90625 49.640625 -45.625 49.640625 -46.453125 L 49.640625 -53.1875 C 49.640625 -54.015625 50.34375 -54.71875 51.171875 -54.71875 L 54.953125 -54.71875 C 55.78125 -54.71875 56.5 -55.4375 56.5 -56.25 Z M 56.5 -66.0625 "/></g></g></g><g fill="#ff0000" fill-opacity="1"><g transform="translate(522.210712, 848.284491)"><g><path d="M 3.1875 -33.6875 L 13.828125 -33.6875 C 14.65625 -33.6875 15.359375 -34.390625 15.359375 -35.21875 L 15.359375 -43.5 C 15.359375 -44.3125 14.65625 -45.03125 13.828125 -45.03125 L 3.1875 -45.03125 C 2.359375 -45.03125 1.65625 -44.3125 1.65625 -43.5 L 1.65625 -35.21875 C 1.65625 -34.390625 2.359375 -33.6875 3.1875 -33.6875 Z M 15.359375 -1.53125 L 15.359375 -9.6875 C 15.359375 -10.515625 14.65625 -11.234375 13.828125 -11.234375 L 3.1875 -11.234375 C 2.359375 -11.234375 1.65625 -10.515625 1.65625 -9.6875 L 1.65625 -1.53125 C 1.65625 -0.703125 2.359375 0 3.1875 0 L 13.828125 0 C 14.65625 0 15.359375 -0.703125 15.359375 -1.53125 Z M 15.359375 -1.53125 "/></g></g></g><g fill="#ff0000" fill-opacity="1"><g transform="translate(545.730432, 848.284491)"><g><path d="M 16.90625 0 L 41.25 0 C 42.078125 0 42.78125 -0.703125 42.78125 -1.53125 L 42.78125 -4.140625 C 42.78125 -4.96875 43.5 -5.671875 44.3125 -5.671875 L 48.109375 -5.671875 C 48.921875 -5.671875 49.640625 -6.375 49.640625 -7.203125 L 49.640625 -9.6875 C 49.640625 -10.515625 50.34375 -11.234375 51.171875 -11.234375 L 54.953125 -11.234375 C 55.78125 -11.234375 56.5 -11.9375 56.5 -12.765625 L 56.5 -66.0625 C 56.5 -66.890625 55.78125 -67.609375 54.953125 -67.609375 L 51.171875 -67.609375 C 50.34375 -67.609375 49.640625 -68.3125 49.640625 -69.140625 L 49.640625 -71.734375 C 49.640625 -72.5625 48.921875 -73.28125 48.109375 -73.28125 L 44.3125 -73.28125 C 43.5 -73.28125 42.78125 -73.984375 42.78125 -74.8125 L 42.78125 -77.296875 C 42.78125 -78.125 42.078125 -78.828125 41.25 -78.828125 L 16.90625 -78.828125 C 16.078125 -78.828125 15.359375 -78.125 15.359375 -77.296875 L 15.359375 -74.8125 C 15.359375 -73.984375 14.65625 -73.28125 13.828125 -73.28125 L 10.046875 -73.28125 C 9.21875 -73.28125 8.515625 -72.5625 8.515625 -71.734375 L 8.515625 -69.140625 C 8.515625 -68.3125 7.796875 -67.609375 6.96875 -67.609375 L 3.1875 -67.609375 C 2.359375 -67.609375 1.65625 -66.890625 1.65625 -66.0625 L 1.65625 -12.765625 C 1.65625 -11.9375 2.359375 -11.234375 3.1875 -11.234375 L 6.96875 -11.234375 C 7.796875 -11.234375 8.515625 -10.515625 8.515625 -9.6875 L 8.515625 -7.203125 C 8.515625 -6.375 9.21875 -5.671875 10.046875 -5.671875 L 13.828125 -5.671875 C 14.65625 -5.671875 15.359375 -4.96875 15.359375 -4.140625 L 15.359375 -1.53125 C 15.359375 -0.703125 16.078125 0 16.90625 0 Z M 15.359375 -66.0625 C 15.359375 -66.890625 16.078125 -67.609375 16.90625 -67.609375 L 41.25 -67.609375 C 42.078125 -67.609375 42.78125 -66.890625 42.78125 -66.0625 L 42.78125 -12.765625 C 42.78125 -11.9375 42.078125 -11.234375 41.25 -11.234375 L 16.90625 -11.234375 C 16.078125 -11.234375 15.359375 -11.9375 15.359375 -12.765625 Z M 15.359375 -66.0625 "/></g></g></g><g fill="#ff0000" fill-opacity="1"><g transform="translate(610.379223, 848.284491)"><g><path d="M 16.90625 0 L 41.25 0 C 42.078125 0 42.78125 -0.703125 42.78125 -1.53125 L 42.78125 -4.140625 C 42.78125 -4.96875 43.5 -5.671875 44.3125 -5.671875 L 48.109375 -5.671875 C 48.921875 -5.671875 49.640625 -6.375 49.640625 -7.203125 L 49.640625 -9.6875 C 49.640625 -10.515625 50.34375 -11.234375 51.171875 -11.234375 L 54.953125 -11.234375 C 55.78125 -11.234375 56.5 -11.9375 56.5 -12.765625 L 56.5 -66.0625 C 56.5 -66.890625 55.78125 -67.609375 54.953125 -67.609375 L 51.171875 -67.609375 C 50.34375 -67.609375 49.640625 -68.3125 49.640625 -69.140625 L 49.640625 -71.734375 C 49.640625 -72.5625 48.921875 -73.28125 48.109375 -73.28125 L 44.3125 -73.28125 C 43.5 -73.28125 42.78125 -73.984375 42.78125 -74.8125 L 42.78125 -77.296875 C 42.78125 -78.125 42.078125 -78.828125 41.25 -78.828125 L 16.90625 -78.828125 C 16.078125 -78.828125 15.359375 -78.125 15.359375 -77.296875 L 15.359375 -74.8125 C 15.359375 -73.984375 14.65625 -73.28125 13.828125 -73.28125 L 10.046875 -73.28125 C 9.21875 -73.28125 8.515625 -72.5625 8.515625 -71.734375 L 8.515625 -69.140625 C 8.515625 -68.3125 7.796875 -67.609375 6.96875 -67.609375 L 3.1875 -67.609375 C 2.359375 -67.609375 1.65625 -66.890625 1.65625 -66.0625 L 1.65625 -12.765625 C 1.65625 -11.9375 2.359375 -11.234375 3.1875 -11.234375 L 6.96875 -11.234375 C 7.796875 -11.234375 8.515625 -10.515625 8.515625 -9.6875 L 8.515625 -7.203125 C 8.515625 -6.375 9.21875 -5.671875 10.046875 -5.671875 L 13.828125 -5.671875 C 14.65625 -5.671875 15.359375 -4.96875 15.359375 -4.140625 L 15.359375 -1.53125 C 15.359375 -0.703125 16.078125 0 16.90625 0 Z M 15.359375 -66.0625 C 15.359375 -66.890625 16.078125 -67.609375 16.90625 -67.609375 L 41.25 -67.609375 C 42.078125 -67.609375 42.78125 -66.890625 42.78125 -66.0625 L 42.78125 -12.765625 C 42.78125 -11.9375 42.078125 -11.234375 41.25 -11.234375 L 16.90625 -11.234375 C 16.078125 -11.234375 15.359375 -11.9375 15.359375 -12.765625 Z M 15.359375 -66.0625 "/></g></g></g><g fill="#00ffff" fill-opacity="1"><g transform="translate(388.480764, 848.284491)"><g><path d="M 3.1875 -67.609375 C 2.359375 -67.609375 1.65625 -66.890625 1.65625 -66.0625 L 1.65625 -57.90625 C 1.65625 -57.078125 2.359375 -56.375 3.1875 -56.375 L 13.828125 -56.375 C 14.65625 -56.375 15.359375 -57.078125 15.359375 -57.90625 L 15.359375 -66.0625 C 15.359375 -66.890625 16.078125 -67.609375 16.90625 -67.609375 L 20.6875 -67.609375 C 21.515625 -67.609375 22.21875 -66.890625 22.21875 -66.0625 L 22.21875 -12.765625 C 22.21875 -11.9375 21.515625 -11.234375 20.6875 -11.234375 L 3.1875 -11.234375 C 2.359375 -11.234375 1.65625 -10.515625 1.65625 -9.6875 L 1.65625 -1.53125 C 1.65625 -0.703125 2.359375 0 3.1875 0 L 54.953125 0 C 55.78125 0 56.5 -0.703125 56.5 -1.53125 L 56.5 -9.6875 C 56.5 -10.515625 55.78125 -11.234375 54.953125 -11.234375 L 37.46875 -11.234375 C 36.640625 -11.234375 35.921875 -11.9375 35.921875 -12.765625 L 35.921875 -77.296875 C 35.921875 -78.125 35.21875 -78.828125 34.390625 -78.828125 L 16.90625 -78.828125 C 16.078125 -78.828125 15.359375 -78.125 15.359375 -77.296875 L 15.359375 -74.8125 C 15.359375 -73.984375 14.65625 -73.28125 13.828125 -73.28125 L 10.046875 -73.28125 C 9.21875 -73.28125 8.515625 -72.5625 8.515625 -71.734375 L 8.515625 -69.140625 C 8.515625 -68.3125 7.796875 -67.609375 6.96875 -67.609375 Z M 3.1875 -67.609375 "/></g></g></g><g fill="#00ffff" fill-opacity="1"><g transform="translate(453.129566, 848.284491)"><g><path d="M 56.5 -66.0625 C 56.5 -66.890625 55.78125 -67.609375 54.953125 -67.609375 L 51.171875 -67.609375 C 50.34375 -67.609375 49.640625 -68.3125 49.640625 -69.140625 L 49.640625 -71.734375 C 49.640625 -72.5625 48.921875 -73.28125 48.109375 -73.28125 L 44.3125 -73.28125 C 43.5 -73.28125 42.78125 -73.984375 42.78125 -74.8125 L 42.78125 -77.296875 C 42.78125 -78.125 42.078125 -78.828125 41.25 -78.828125 L 16.90625 -78.828125 C 16.078125 -78.828125 15.359375 -78.125 15.359375 -77.296875 L 15.359375 -74.8125 C 15.359375 -73.984375 14.65625 -73.28125 13.828125 -73.28125 L 10.046875 -73.28125 C 9.21875 -73.28125 8.515625 -72.5625 8.515625 -71.734375 L 8.515625 -69.140625 C 8.515625 -68.3125 7.796875 -67.609375 6.96875 -67.609375 L 3.1875 -67.609375 C 2.359375 -67.609375 1.65625 -66.890625 1.65625 -66.0625 L 1.65625 -57.796875 C 1.65625 -56.96875 2.359375 -56.25 3.1875 -56.25 L 13.828125 -56.25 C 14.65625 -56.25 15.359375 -56.96875 15.359375 -57.796875 L 15.359375 -66.0625 C 15.359375 -66.890625 16.078125 -67.609375 16.90625 -67.609375 L 41.25 -67.609375 C 42.078125 -67.609375 42.78125 -66.890625 42.78125 -66.0625 L 42.78125 -56.25 C 42.78125 -55.4375 42.078125 -54.71875 41.25 -54.71875 L 37.46875 -54.71875 C 36.640625 -54.71875 35.921875 -54.015625 35.921875 -53.1875 L 35.921875 -46.453125 C 35.921875 -45.625 35.21875 -44.90625 34.390625 -44.90625 L 16.90625 -44.90625 C 16.078125 -44.90625 15.359375 -44.203125 15.359375 -43.375 L 15.359375 -35.21875 C 15.359375 -34.390625 16.078125 -33.6875 16.90625 -33.6875 L 41.25 -33.6875 C 42.078125 -33.6875 42.78125 -32.96875 42.78125 -32.140625 L 42.78125 -12.765625 C 42.78125 -11.9375 42.078125 -11.234375 41.25 -11.234375 L 16.90625 -11.234375 C 16.078125 -11.234375 15.359375 -11.9375 15.359375 -12.765625 L 15.359375 -20.921875 C 15.359375 -21.75 14.65625 -22.453125 13.828125 -22.453125 L 3.1875 -22.453125 C 2.359375 -22.453125 1.65625 -21.75 1.65625 -20.921875 L 1.65625 -12.765625 C 1.65625 -11.9375 2.359375 -11.234375 3.1875 -11.234375 L 6.96875 -11.234375 C 7.796875 -11.234375 8.515625 -10.515625 8.515625 -9.6875 L 8.515625 -7.203125 C 8.515625 -6.375 9.21875 -5.671875 10.046875 -5.671875 L 13.828125 -5.671875 C 14.65625 -5.671875 15.359375 -4.96875 15.359375 -4.140625 L 15.359375 -1.53125 C 15.359375 -0.703125 16.078125 0 16.90625 0 L 41.25 0 C 42.078125 0 42.78125 -0.703125 42.78125 -1.53125 L 42.78125 -4.140625 C 42.78125 -4.96875 43.5 -5.671875 44.3125 -5.671875 L 48.109375 -5.671875 C 48.921875 -5.671875 49.640625 -6.375 49.640625 -7.203125 L 49.640625 -9.6875 C 49.640625 -10.515625 50.34375 -11.234375 51.171875 -11.234375 L 54.953125 -11.234375 C 55.78125 -11.234375 56.5 -11.9375 56.5 -12.765625 L 56.5 -32.140625 C 56.5 -32.96875 55.78125 -33.6875 54.953125 -33.6875 L 51.171875 -33.6875 C 50.34375 -33.6875 49.640625 -34.390625 49.640625 -35.21875 L 49.640625 -37.8125 C 49.640625 -38.640625 48.921875 -39.359375 48.109375 -39.359375 L 44.3125 -39.359375 C 43.5 -39.359375 42.78125 -40.0625 42.78125 -40.890625 L 42.78125 -43.375 C 42.78125 -44.203125 43.5 -44.90625 44.3125 -44.90625 L 48.109375 -44.90625 C 48.921875 -44.90625 49.640625 -45.625 49.640625 -46.453125 L 49.640625 -53.1875 C 49.640625 -54.015625 50.34375 -54.71875 51.171875 -54.71875 L 54.953125 -54.71875 C 55.78125 -54.71875 56.5 -55.4375 56.5 -56.25 Z M 56.5 -66.0625 "/></g></g></g><g fill="#00ffff" fill-opacity="1"><g transform="translate(517.778367, 848.284491)"><g><path d="M 3.1875 -33.6875 L 13.828125 -33.6875 C 14.65625 -33.6875 15.359375 -34.390625 15.359375 -35.21875 L 15.359375 -43.5 C 15.359375 -44.3125 14.65625 -45.03125 13.828125 -45.03125 L 3.1875 -45.03125 C 2.359375 -45.03125 1.65625 -44.3125 1.65625 -43.5 L 1.65625 -35.21875 C 1.65625 -34.390625 2.359375 -33.6875 3.1875 -33.6875 Z M 15.359375 -1.53125 L 15.359375 -9.6875 C 15.359375 -10.515625 14.65625 -11.234375 13.828125 -11.234375 L 3.1875 -11.234375 C 2.359375 -11.234375 1.65625 -10.515625 1.65625 -9.6875 L 1.65625 -1.53125 C 1.65625 -0.703125 2.359375 0 3.1875 0 L 13.828125 0 C 14.65625 0 15.359375 -0.703125 15.359375 -1.53125 Z M 15.359375 -1.53125 "/></g></g></g><g fill="#00ffff" fill-opacity="1"><g transform="translate(541.298087, 848.284491)"><g><path d="M 16.90625 0 L 41.25 0 C 42.078125 0 42.78125 -0.703125 42.78125 -1.53125 L 42.78125 -4.140625 C 42.78125 -4.96875 43.5 -5.671875 44.3125 -5.671875 L 48.109375 -5.671875 C 48.921875 -5.671875 49.640625 -6.375 49.640625 -7.203125 L 49.640625 -9.6875 C 49.640625 -10.515625 50.34375 -11.234375 51.171875 -11.234375 L 54.953125 -11.234375 C 55.78125 -11.234375 56.5 -11.9375 56.5 -12.765625 L 56.5 -66.0625 C 56.5 -66.890625 55.78125 -67.609375 54.953125 -67.609375 L 51.171875 -67.609375 C 50.34375 -67.609375 49.640625 -68.3125 49.640625 -69.140625 L 49.640625 -71.734375 C 49.640625 -72.5625 48.921875 -73.28125 48.109375 -73.28125 L 44.3125 -73.28125 C 43.5 -73.28125 42.78125 -73.984375 42.78125 -74.8125 L 42.78125 -77.296875 C 42.78125 -78.125 42.078125 -78.828125 41.25 -78.828125 L 16.90625 -78.828125 C 16.078125 -78.828125 15.359375 -78.125 15.359375 -77.296875 L 15.359375 -74.8125 C 15.359375 -73.984375 14.65625 -73.28125 13.828125 -73.28125 L 10.046875 -73.28125 C 9.21875 -73.28125 8.515625 -72.5625 8.515625 -71.734375 L 8.515625 -69.140625 C 8.515625 -68.3125 7.796875 -67.609375 6.96875 -67.609375 L 3.1875 -67.609375 C 2.359375 -67.609375 1.65625 -66.890625 1.65625 -66.0625 L 1.65625 -12.765625 C 1.65625 -11.9375 2.359375 -11.234375 3.1875 -11.234375 L 6.96875 -11.234375 C 7.796875 -11.234375 8.515625 -10.515625 8.515625 -9.6875 L 8.515625 -7.203125 C 8.515625 -6.375 9.21875 -5.671875 10.046875 -5.671875 L 13.828125 -5.671875 C 14.65625 -5.671875 15.359375 -4.96875 15.359375 -4.140625 L 15.359375 -1.53125 C 15.359375 -0.703125 16.078125 0 16.90625 0 Z M 15.359375 -66.0625 C 15.359375 -66.890625 16.078125 -67.609375 16.90625 -67.609375 L 41.25 -67.609375 C 42.078125 -67.609375 42.78125 -66.890625 42.78125 -66.0625 L 42.78125 -12.765625 C 42.78125 -11.9375 42.078125 -11.234375 41.25 -11.234375 L 16.90625 -11.234375 C 16.078125 -11.234375 15.359375 -11.9375 15.359375 -12.765625 Z M 15.359375 -66.0625 "/></g></g></g><g fill="#00ffff" fill-opacity="1"><g transform="translate(605.946878, 848.284491)"><g><path d="M 16.90625 0 L 41.25 0 C 42.078125 0 42.78125 -0.703125 42.78125 -1.53125 L 42.78125 -4.140625 C 42.78125 -4.96875 43.5 -5.671875 44.3125 -5.671875 L 48.109375 -5.671875 C 48.921875 -5.671875 49.640625 -6.375 49.640625 -7.203125 L 49.640625 -9.6875 C 49.640625 -10.515625 50.34375 -11.234375 51.171875 -11.234375 L 54.953125 -11.234375 C 55.78125 -11.234375 56.5 -11.9375 56.5 -12.765625 L 56.5 -66.0625 C 56.5 -66.890625 55.78125 -67.609375 54.953125 -67.609375 L 51.171875 -67.609375 C 50.34375 -67.609375 49.640625 -68.3125 49.640625 -69.140625 L 49.640625 -71.734375 C 49.640625 -72.5625 48.921875 -73.28125 48.109375 -73.28125 L 44.3125 -73.28125 C 43.5 -73.28125 42.78125 -73.984375 42.78125 -74.8125 L 42.78125 -77.296875 C 42.78125 -78.125 42.078125 -78.828125 41.25 -78.828125 L 16.90625 -78.828125 C 16.078125 -78.828125 15.359375 -78.125 15.359375 -77.296875 L 15.359375 -74.8125 C 15.359375 -73.984375 14.65625 -73.28125 13.828125 -73.28125 L 10.046875 -73.28125 C 9.21875 -73.28125 8.515625 -72.5625 8.515625 -71.734375 L 8.515625 -69.140625 C 8.515625 -68.3125 7.796875 -67.609375 6.96875 -67.609375 L 3.1875 -67.609375 C 2.359375 -67.609375 1.65625 -66.890625 1.65625 -66.0625 L 1.65625 -12.765625 C 1.65625 -11.9375 2.359375 -11.234375 3.1875 -11.234375 L 6.96875 -11.234375 C 7.796875 -11.234375 8.515625 -10.515625 8.515625 -9.6875 L 8.515625 -7.203125 C 8.515625 -6.375 9.21875 -5.671875 10.046875 -5.671875 L 13.828125 -5.671875 C 14.65625 -5.671875 15.359375 -4.96875 15.359375 -4.140625 L 15.359375 -1.53125 C 15.359375 -0.703125 16.078125 0 16.90625 0 Z M 15.359375 -66.0625 C 15.359375 -66.890625 16.078125 -67.609375 16.90625 -67.609375 L 41.25 -67.609375 C 42.078125 -67.609375 42.78125 -66.890625 42.78125 -66.0625 L 42.78125 -12.765625 C 42.78125 -11.9375 42.078125 -11.234375 41.25 -11.234375 L 16.90625 -11.234375 C 16.078125 -11.234375 15.359375 -11.9375 15.359375 -12.765625 Z M 15.359375 -66.0625 "/></g></g></g><g fill="#f08d45" fill-opacity="1"><g transform="translate(390.696937, 848.284491)"><g><path d="M 3.1875 -67.609375 C 2.359375 -67.609375 1.65625 -66.890625 1.65625 -66.0625 L 1.65625 -57.90625 C 1.65625 -57.078125 2.359375 -56.375 3.1875 -56.375 L 13.828125 -56.375 C 14.65625 -56.375 15.359375 -57.078125 15.359375 -57.90625 L 15.359375 -66.0625 C 15.359375 -66.890625 16.078125 -67.609375 16.90625 -67.609375 L 20.6875 -67.609375 C 21.515625 -67.609375 22.21875 -66.890625 22.21875 -66.0625 L 22.21875 -12.765625 C 22.21875 -11.9375 21.515625 -11.234375 20.6875 -11.234375 L 3.1875 -11.234375 C 2.359375 -11.234375 1.65625 -10.515625 1.65625 -9.6875 L 1.65625 -1.53125 C 1.65625 -0.703125 2.359375 0 3.1875 0 L 54.953125 0 C 55.78125 0 56.5 -0.703125 56.5 -1.53125 L 56.5 -9.6875 C 56.5 -10.515625 55.78125 -11.234375 54.953125 -11.234375 L 37.46875 -11.234375 C 36.640625 -11.234375 35.921875 -11.9375 35.921875 -12.765625 L 35.921875 -77.296875 C 35.921875 -78.125 35.21875 -78.828125 34.390625 -78.828125 L 16.90625 -78.828125 C 16.078125 -78.828125 15.359375 -78.125 15.359375 -77.296875 L 15.359375 -74.8125 C 15.359375 -73.984375 14.65625 -73.28125 13.828125 -73.28125 L 10.046875 -73.28125 C 9.21875 -73.28125 8.515625 -72.5625 8.515625 -71.734375 L 8.515625 -69.140625 C 8.515625 -68.3125 7.796875 -67.609375 6.96875 -67.609375 Z M 3.1875 -67.609375 "/></g></g></g><g fill="#f08d45" fill-opacity="1"><g transform="translate(455.345738, 848.284491)"><g><path d="M 56.5 -66.0625 C 56.5 -66.890625 55.78125 -67.609375 54.953125 -67.609375 L 51.171875 -67.609375 C 50.34375 -67.609375 49.640625 -68.3125 49.640625 -69.140625 L 49.640625 -71.734375 C 49.640625 -72.5625 48.921875 -73.28125 48.109375 -73.28125 L 44.3125 -73.28125 C 43.5 -73.28125 42.78125 -73.984375 42.78125 -74.8125 L 42.78125 -77.296875 C 42.78125 -78.125 42.078125 -78.828125 41.25 -78.828125 L 16.90625 -78.828125 C 16.078125 -78.828125 15.359375 -78.125 15.359375 -77.296875 L 15.359375 -74.8125 C 15.359375 -73.984375 14.65625 -73.28125 13.828125 -73.28125 L 10.046875 -73.28125 C 9.21875 -73.28125 8.515625 -72.5625 8.515625 -71.734375 L 8.515625 -69.140625 C 8.515625 -68.3125 7.796875 -67.609375 6.96875 -67.609375 L 3.1875 -67.609375 C 2.359375 -67.609375 1.65625 -66.890625 1.65625 -66.0625 L 1.65625 -57.796875 C 1.65625 -56.96875 2.359375 -56.25 3.1875 -56.25 L 13.828125 -56.25 C 14.65625 -56.25 15.359375 -56.96875 15.359375 -57.796875 L 15.359375 -66.0625 C 15.359375 -66.890625 16.078125 -67.609375 16.90625 -67.609375 L 41.25 -67.609375 C 42.078125 -67.609375 42.78125 -66.890625 42.78125 -66.0625 L 42.78125 -56.25 C 42.78125 -55.4375 42.078125 -54.71875 41.25 -54.71875 L 37.46875 -54.71875 C 36.640625 -54.71875 35.921875 -54.015625 35.921875 -53.1875 L 35.921875 -46.453125 C 35.921875 -45.625 35.21875 -44.90625 34.390625 -44.90625 L 16.90625 -44.90625 C 16.078125 -44.90625 15.359375 -44.203125 15.359375 -43.375 L 15.359375 -35.21875 C 15.359375 -34.390625 16.078125 -33.6875 16.90625 -33.6875 L 41.25 -33.6875 C 42.078125 -33.6875 42.78125 -32.96875 42.78125 -32.140625 L 42.78125 -12.765625 C 42.78125 -11.9375 42.078125 -11.234375 41.25 -11.234375 L 16.90625 -11.234375 C 16.078125 -11.234375 15.359375 -11.9375 15.359375 -12.765625 L 15.359375 -20.921875 C 15.359375 -21.75 14.65625 -22.453125 13.828125 -22.453125 L 3.1875 -22.453125 C 2.359375 -22.453125 1.65625 -21.75 1.65625 -20.921875 L 1.65625 -12.765625 C 1.65625 -11.9375 2.359375 -11.234375 3.1875 -11.234375 L 6.96875 -11.234375 C 7.796875 -11.234375 8.515625 -10.515625 8.515625 -9.6875 L 8.515625 -7.203125 C 8.515625 -6.375 9.21875 -5.671875 10.046875 -5.671875 L 13.828125 -5.671875 C 14.65625 -5.671875 15.359375 -4.96875 15.359375 -4.140625 L 15.359375 -1.53125 C 15.359375 -0.703125 16.078125 0 16.90625 0 L 41.25 0 C 42.078125 0 42.78125 -0.703125 42.78125 -1.53125 L 42.78125 -4.140625 C 42.78125 -4.96875 43.5 -5.671875 44.3125 -5.671875 L 48.109375 -5.671875 C 48.921875 -5.671875 49.640625 -6.375 49.640625 -7.203125 L 49.640625 -9.6875 C 49.640625 -10.515625 50.34375 -11.234375 51.171875 -11.234375 L 54.953125 -11.234375 C 55.78125 -11.234375 56.5 -11.9375 56.5 -12.765625 L 56.5 -32.140625 C 56.5 -32.96875 55.78125 -33.6875 54.953125 -33.6875 L 51.171875 -33.6875 C 50.34375 -33.6875 49.640625 -34.390625 49.640625 -35.21875 L 49.640625 -37.8125 C 49.640625 -38.640625 48.921875 -39.359375 48.109375 -39.359375 L 44.3125 -39.359375 C 43.5 -39.359375 42.78125 -40.0625 42.78125 -40.890625 L 42.78125 -43.375 C 42.78125 -44.203125 43.5 -44.90625 44.3125 -44.90625 L 48.109375 -44.90625 C 48.921875 -44.90625 49.640625 -45.625 49.640625 -46.453125 L 49.640625 -53.1875 C 49.640625 -54.015625 50.34375 -54.71875 51.171875 -54.71875 L 54.953125 -54.71875 C 55.78125 -54.71875 56.5 -55.4375 56.5 -56.25 Z M 56.5 -66.0625 "/></g></g></g><g fill="#f08d45" fill-opacity="1"><g transform="translate(519.99454, 848.284491)"><g><path d="M 3.1875 -33.6875 L 13.828125 -33.6875 C 14.65625 -33.6875 15.359375 -34.390625 15.359375 -35.21875 L 15.359375 -43.5 C 15.359375 -44.3125 14.65625 -45.03125 13.828125 -45.03125 L 3.1875 -45.03125 C 2.359375 -45.03125 1.65625 -44.3125 1.65625 -43.5 L 1.65625 -35.21875 C 1.65625 -34.390625 2.359375 -33.6875 3.1875 -33.6875 Z M 15.359375 -1.53125 L 15.359375 -9.6875 C 15.359375 -10.515625 14.65625 -11.234375 13.828125 -11.234375 L 3.1875 -11.234375 C 2.359375 -11.234375 1.65625 -10.515625 1.65625 -9.6875 L 1.65625 -1.53125 C 1.65625 -0.703125 2.359375 0 3.1875 0 L 13.828125 0 C 14.65625 0 15.359375 -0.703125 15.359375 -1.53125 Z M 15.359375 -1.53125 "/></g></g></g><g fill="#f08d45" fill-opacity="1"><g transform="translate(543.514259, 848.284491)"><g><path d="M 16.90625 0 L 41.25 0 C 42.078125 0 42.78125 -0.703125 42.78125 -1.53125 L 42.78125 -4.140625 C 42.78125 -4.96875 43.5 -5.671875 44.3125 -5.671875 L 48.109375 -5.671875 C 48.921875 -5.671875 49.640625 -6.375 49.640625 -7.203125 L 49.640625 -9.6875 C 49.640625 -10.515625 50.34375 -11.234375 51.171875 -11.234375 L 54.953125 -11.234375 C 55.78125 -11.234375 56.5 -11.9375 56.5 -12.765625 L 56.5 -66.0625 C 56.5 -66.890625 55.78125 -67.609375 54.953125 -67.609375 L 51.171875 -67.609375 C 50.34375 -67.609375 49.640625 -68.3125 49.640625 -69.140625 L 49.640625 -71.734375 C 49.640625 -72.5625 48.921875 -73.28125 48.109375 -73.28125 L 44.3125 -73.28125 C 43.5 -73.28125 42.78125 -73.984375 42.78125 -74.8125 L 42.78125 -77.296875 C 42.78125 -78.125 42.078125 -78.828125 41.25 -78.828125 L 16.90625 -78.828125 C 16.078125 -78.828125 15.359375 -78.125 15.359375 -77.296875 L 15.359375 -74.8125 C 15.359375 -73.984375 14.65625 -73.28125 13.828125 -73.28125 L 10.046875 -73.28125 C 9.21875 -73.28125 8.515625 -72.5625 8.515625 -71.734375 L 8.515625 -69.140625 C 8.515625 -68.3125 7.796875 -67.609375 6.96875 -67.609375 L 3.1875 -67.609375 C 2.359375 -67.609375 1.65625 -66.890625 1.65625 -66.0625 L 1.65625 -12.765625 C 1.65625 -11.9375 2.359375 -11.234375 3.1875 -11.234375 L 6.96875 -11.234375 C 7.796875 -11.234375 8.515625 -10.515625 8.515625 -9.6875 L 8.515625 -7.203125 C 8.515625 -6.375 9.21875 -5.671875 10.046875 -5.671875 L 13.828125 -5.671875 C 14.65625 -5.671875 15.359375 -4.96875 15.359375 -4.140625 L 15.359375 -1.53125 C 15.359375 -0.703125 16.078125 0 16.90625 0 Z M 15.359375 -66.0625 C 15.359375 -66.890625 16.078125 -67.609375 16.90625 -67.609375 L 41.25 -67.609375 C 42.078125 -67.609375 42.78125 -66.890625 42.78125 -66.0625 L 42.78125 -12.765625 C 42.78125 -11.9375 42.078125 -11.234375 41.25 -11.234375 L 16.90625 -11.234375 C 16.078125 -11.234375 15.359375 -11.9375 15.359375 -12.765625 Z M 15.359375 -66.0625 "/></g></g></g><g fill="#f08d45" fill-opacity="1"><g transform="translate(608.163051, 848.284491)"><g><path d="M 16.90625 0 L 41.25 0 C 42.078125 0 42.78125 -0.703125 42.78125 -1.53125 L 42.78125 -4.140625 C 42.78125 -4.96875 43.5 -5.671875 44.3125 -5.671875 L 48.109375 -5.671875 C 48.921875 -5.671875 49.640625 -6.375 49.640625 -7.203125 L 49.640625 -9.6875 C 49.640625 -10.515625 50.34375 -11.234375 51.171875 -11.234375 L 54.953125 -11.234375 C 55.78125 -11.234375 56.5 -11.9375 56.5 -12.765625 L 56.5 -66.0625 C 56.5 -66.890625 55.78125 -67.609375 54.953125 -67.609375 L 51.171875 -67.609375 C 50.34375 -67.609375 49.640625 -68.3125 49.640625 -69.140625 L 49.640625 -71.734375 C 49.640625 -72.5625 48.921875 -73.28125 48.109375 -73.28125 L 44.3125 -73.28125 C 43.5 -73.28125 42.78125 -73.984375 42.78125 -74.8125 L 42.78125 -77.296875 C 42.78125 -78.125 42.078125 -78.828125 41.25 -78.828125 L 16.90625 -78.828125 C 16.078125 -78.828125 15.359375 -78.125 15.359375 -77.296875 L 15.359375 -74.8125 C 15.359375 -73.984375 14.65625 -73.28125 13.828125 -73.28125 L 10.046875 -73.28125 C 9.21875 -73.28125 8.515625 -72.5625 8.515625 -71.734375 L 8.515625 -69.140625 C 8.515625 -68.3125 7.796875 -67.609375 6.96875 -67.609375 L 3.1875 -67.609375 C 2.359375 -67.609375 1.65625 -66.890625 1.65625 -66.0625 L 1.65625 -12.765625 C 1.65625 -11.9375 2.359375 -11.234375 3.1875 -11.234375 L 6.96875 -11.234375 C 7.796875 -11.234375 8.515625 -10.515625 8.515625 -9.6875 L 8.515625 -7.203125 C 8.515625 -6.375 9.21875 -5.671875 10.046875 -5.671875 L 13.828125 -5.671875 C 14.65625 -5.671875 15.359375 -4.96875 15.359375 -4.140625 L 15.359375 -1.53125 C 15.359375 -0.703125 16.078125 0 16.90625 0 Z M 15.359375 -66.0625 C 15.359375 -66.890625 16.078125 -67.609375 16.90625 -67.609375 L 41.25 -67.609375 C 42.078125 -67.609375 42.78125 -66.890625 42.78125 -66.0625 L 42.78125 -12.765625 C 42.78125 -11.9375 42.078125 -11.234375 41.25 -11.234375 L 16.90625 -11.234375 C 16.078125 -11.234375 15.359375 -11.9375 15.359375 -12.765625 Z M 15.359375 -66.0625 "/></g></g></g></svg>